<svg width="119" height="30" viewBox="0 0 119 30" fill="none" xmlns="http://www.w3.org/2000/svg">
<path d="M60.534 12.3227C60.0925 12.3227 59.9403 12.1856 60.0215 11.8302L60.7877 8.81905H65.3191L65.8316 6.84379H61.3002L61.8127 4.83806C61.9497 4.31505 62.3202 3.8682 63.0509 3.8682H66.679L67.1915 1.89294H61.9193C59.7323 1.89294 59.0777 2.28393 58.2252 5.57434L56.6623 11.5915C56.1803 13.6125 56.779 14.4909 58.4282 14.4909H62.9747C63.8678 14.4909 64.4463 14.0136 64.7254 13.2824L65.1009 12.3227H60.534Z" fill="black"/>
<path d="M112.343 12.3227C111.901 12.3227 111.749 12.1856 111.83 11.8302L112.596 8.81905H117.128L117.64 6.84379H113.109L113.621 4.83806C113.758 4.31505 114.129 3.8682 114.859 3.8682H118.488L119 1.89294H113.733C111.546 1.89294 110.891 2.28393 110.039 5.57434L108.476 11.5915C107.994 13.6125 108.593 14.4909 110.242 14.4909H114.788C115.682 14.4909 116.26 14.0136 116.539 13.2824L116.915 12.3227H112.343Z" fill="black"/>
<path d="M40.653 1.89294H36.1216L32.9654 14.1152C32.9096 14.3234 33.0314 14.4909 33.2395 14.4909H37.2786C42.3529 14.4909 43.2053 13.5211 44.5957 8.13862C45.7983 3.46198 45.0524 1.89294 40.653 1.89294ZM37.7505 12.343H36.8219L39.0089 3.87328C39.288 3.87328 39.3946 3.85805 40.0948 3.85805C42.0585 3.85805 42.0586 4.50801 41.1198 8.13862C40.1709 11.8149 39.6178 12.343 37.7505 12.343Z" fill="black"/>
<path d="M104.076 1.86719C101.463 1.86719 100.25 1.92304 99.54 1.89258L96.3788 14.1148C96.323 14.323 96.4447 14.4906 96.6528 14.4906H99.6821L102.427 3.86784C102.706 3.86784 103.133 3.84245 103.564 3.84245C105.035 3.84245 105.228 4.36546 104.843 5.86849L102.711 14.1097C102.656 14.3179 102.777 14.4855 102.985 14.4855H106.015L108.242 5.86849C109.004 2.88782 107.694 1.86719 104.076 1.86719Z" fill="black"/>
<path d="M77.8376 1.89294L77.3149 3.93929H80.6792C80.7147 3.93929 80.7147 3.97992 80.6843 4.0053C80.1464 4.41153 79.8166 4.99039 79.6643 5.58957L77.457 14.1152C77.4012 14.3234 77.5281 14.4909 77.731 14.4909H80.9836L83.7187 3.93929H85.3831C86.3167 3.93929 86.885 3.5483 87.2047 2.73078L87.5244 1.89294H77.8376Z" fill="black"/>
<path d="M30.6718 14.4957L33.8331 2.27346C33.8889 2.06527 33.7671 1.89771 33.5591 1.89771H30.3572L27.1959 14.12C27.1401 14.3281 27.2619 14.4957 27.4699 14.4957H30.6718Z" fill="black"/>
<path d="M92.7202 1.7196C88.9094 1.7196 87.2552 2.40003 85.7532 8.19379C84.4542 13.2157 85.4944 14.668 89.3712 14.668C93.3139 14.668 94.8768 13.8555 96.3382 8.19379C97.3987 4.09601 97.1856 1.7196 92.7202 1.7196ZM89.9243 12.5505C88.4731 12.5505 88.2549 12.0224 89.2697 8.09223C90.112 4.82213 90.9188 3.68471 92.2179 3.68471C93.6691 3.68471 93.8315 4.46669 92.8927 8.09223C91.9641 11.6873 91.0457 12.5505 89.9243 12.5505Z" fill="black"/>
<path d="M1.98182 8.29091L3.95572 1.36988C4.14854 0.65899 4.93506 0.0090332 5.72665 0.0090332H11.76C11.8615 0.0090332 11.8919 0.141055 11.8158 0.196911C8.67988 2.34482 4.89954 5.52859 2.15435 8.38231C2.08331 8.4534 1.95645 8.39246 1.98182 8.29091Z" fill="#ED1C24"/>
<path d="M6.74637 12.4446L8.69997 5.61495C8.73042 5.51339 8.61879 5.43723 8.53252 5.50831C5.66048 7.9812 2.19474 11.5915 0.0280152 14.3234C-0.027802 14.3944 0.00264236 14.5011 0.0939796 14.5011H8.54267C12.1048 14.5011 14.0533 13.3992 14.7637 10.7587C15.3422 8.61084 14.2157 7.14336 12.4194 6.76253C12.389 6.75745 12.3585 6.69652 12.4194 6.68636C13.9417 6.42739 15.4741 5.81298 16.0171 3.59399C16.6108 1.19219 14.7739 -0.122955 12.663 0.00906763L9.43575 11.3224C9.26322 11.9368 8.60864 12.4497 7.9845 12.4497H6.74637" fill="black"/>
<path d="M25.1054 9.4433C24.9938 9.06755 24.872 8.79335 24.6893 8.56993C24.6639 8.53946 24.6589 8.50391 24.7045 8.48868C26.1507 8.04184 27.0996 7.12783 27.5005 5.57911C28.0282 3.52768 26.7393 1.89771 23.4766 1.89771H18.6306L15.4693 14.12C15.4135 14.3281 15.5353 14.4957 15.7434 14.4957H18.7727L21.5179 3.87297C21.8122 3.87297 22.0913 3.85773 22.7915 3.85773C23.9586 3.85773 24.3899 4.57878 24.1413 5.55371C23.8115 6.83332 22.8169 7.55437 21.6346 7.55437H21.1881L22.4465 13.6528C22.5936 14.2469 22.893 14.4906 23.578 14.4906H26.2826L25.1054 9.4433Z" fill="black"/>
<path d="M66.3341 10.225C65.0504 13.2919 66.7249 14.6833 70.1297 14.6833C73.2403 14.6833 74.9655 13.9419 75.7013 11.0831C75.955 10.1082 75.7926 9.052 75.1888 8.39696C74.0268 7.13259 71.789 6.89394 71.0025 6.16273C70.6016 5.79206 70.6067 5.26904 70.7234 4.81712C70.9365 3.99452 71.4896 3.5426 72.3878 3.5426C73.7933 3.5426 73.8289 4.40582 73.4838 5.43661H76.4979C77.2083 3.29378 76.2797 1.61304 72.7277 1.61304C69.739 1.61304 68.1254 2.786 67.5469 5.03546C67.3845 5.64988 67.4454 6.66036 67.8158 7.29C68.6379 8.69655 70.8097 8.87427 72.0123 9.70703C72.5349 10.0726 72.5501 10.5601 72.4131 11.0983C72.1442 12.1494 71.6165 12.6471 70.5661 12.6471C69.5563 12.6471 68.9525 12.058 69.5309 10.2199H66.3341" fill="black"/>
<path d="M52.4609 8.2195L51.3293 12.3833C51.0908 12.4036 50.7915 12.4391 50.3297 12.4391C48.1072 12.4391 48.3558 11.7689 49.2945 8.14333C50.2688 4.37561 50.8371 3.68503 52.2224 3.68503C53.5569 3.68503 53.5671 4.5838 53.2271 5.72122H56.6117C57.1597 3.59871 56.7943 1.71484 52.8364 1.71484C48.4268 1.71484 47.2293 2.64408 45.8085 8.14333C44.4841 13.2617 44.9205 14.6175 49.6853 14.6175C51.9433 14.6175 52.8922 14.45 54.2673 14.2011L55.8607 8.2195H52.4609Z" fill="black"/>
<path d="M10.1969 25.1986C10.0498 25.7775 9.75041 26.2294 9.30894 26.5544C8.86748 26.8793 8.29409 27.0418 7.58876 27.0418C7.42131 27.0418 7.24878 27.0317 7.06103 27.0063C6.87329 26.9809 6.70583 26.9504 6.54853 26.9098C6.39123 26.8692 6.26437 26.8184 6.16288 26.7626C6.0614 26.7016 6.01065 26.6356 6.01573 26.5594V26.5137L6.17303 25.8892C6.19333 25.7927 6.25422 25.7419 6.34556 25.7419C6.3963 25.7419 6.44705 25.7622 6.50286 25.8079C6.55868 25.8536 6.63479 25.8993 6.73628 25.9501C6.83777 26.0009 6.96462 26.0517 7.127 26.0923C7.28938 26.138 7.49235 26.1583 7.74606 26.1583C8.15201 26.1583 8.46154 26.0669 8.66958 25.8841C8.8827 25.7013 8.99434 25.4677 9.00449 25.1834C9.00956 25.0767 8.98419 24.9752 8.92837 24.8736C8.87256 24.7721 8.78122 24.6705 8.64421 24.5639L7.72576 23.853C7.52279 23.6905 7.37056 23.5229 7.27415 23.3401C7.17267 23.1573 7.13207 22.9441 7.14222 22.6952C7.14729 22.6292 7.15237 22.5581 7.16759 22.4921C7.17774 22.4261 7.19297 22.355 7.20819 22.2789C7.35534 21.7102 7.64965 21.2887 8.09619 21.0043C8.53765 20.7251 9.08568 20.5829 9.74026 20.5829C9.89249 20.5829 10.0549 20.5981 10.2172 20.6184C10.3796 20.6438 10.5318 20.6794 10.6739 20.72C10.8109 20.7657 10.9276 20.8165 11.019 20.8774C11.1103 20.9383 11.1509 20.9993 11.1509 21.0602V21.0907L10.9835 21.7609C10.9682 21.7965 10.953 21.832 10.9276 21.8574C10.9023 21.8828 10.8667 21.898 10.8211 21.898C10.7653 21.898 10.7094 21.8777 10.6486 21.832C10.5877 21.7914 10.5166 21.7406 10.4253 21.6848C10.334 21.6289 10.2172 21.5781 10.0701 21.5375C9.92293 21.4918 9.74026 21.4715 9.51192 21.4715C9.26835 21.4715 9.07045 21.507 8.9233 21.5781C8.77614 21.6492 8.66451 21.7305 8.58332 21.8219C8.50721 21.9133 8.45139 22.0097 8.42602 22.1062C8.40064 22.2027 8.38542 22.2839 8.38542 22.3398C8.38035 22.4566 8.41079 22.5683 8.48183 22.6749C8.55287 22.7816 8.67973 22.8984 8.8624 23.0253L9.56773 23.5229C9.83667 23.7159 10.0244 23.8987 10.1361 24.0713C10.2426 24.2491 10.2934 24.4572 10.2832 24.7061C10.268 24.8635 10.2426 25.0259 10.1969 25.1986Z" fill="black"/>
<path d="M15.7535 24.5646C15.6622 24.9251 15.5303 25.2552 15.3527 25.5548C15.1751 25.8594 14.962 26.1184 14.7082 26.3418C14.4545 26.5653 14.1653 26.7379 13.8355 26.8598C13.5056 26.9816 13.1403 27.0476 12.7343 27.0476C12.0848 27.0476 11.6028 26.8902 11.2983 26.5805C10.9939 26.2707 10.8518 25.8391 10.8772 25.2958C10.8873 25.0775 10.9228 24.8439 10.9888 24.59C11.0801 24.2295 11.2121 23.8994 11.3897 23.5998C11.5673 23.2952 11.7804 23.0362 12.0341 22.8178C12.2878 22.5995 12.577 22.4269 12.9069 22.305C13.2367 22.1831 13.602 22.1222 14.008 22.1222C14.6575 22.1222 15.1396 22.2745 15.444 22.5843C15.7485 22.894 15.8905 23.3205 15.8652 23.8639C15.855 24.0822 15.8195 24.3158 15.7535 24.5646ZM14.556 24.5443C14.622 24.2853 14.6626 24.0568 14.6676 23.8588C14.6829 23.5237 14.6169 23.285 14.4647 23.1428C14.3124 22.9956 14.0892 22.9245 13.7898 22.9245C13.4042 22.9245 13.0794 23.0565 12.8155 23.3155C12.5517 23.5744 12.3436 24.0061 12.1863 24.6154C12.1204 24.8896 12.0798 25.1181 12.0747 25.3009C12.0595 25.636 12.1254 25.8747 12.2726 26.0219C12.4197 26.1692 12.6481 26.2454 12.9525 26.2454C13.3331 26.2454 13.6579 26.1133 13.9217 25.8544C14.1856 25.5954 14.3987 25.1587 14.556 24.5443Z" fill="black"/>
<path d="M17.1386 26.7988C17.1133 26.9105 17.0524 26.9663 16.9458 26.9663H16.1238C16.0324 26.9663 15.9868 26.9206 15.9918 26.8394V26.8038L17.6207 20.4668C17.6461 20.355 17.712 20.2992 17.8287 20.2992H18.6508C18.737 20.2992 18.7776 20.3398 18.7725 20.4211V20.4464L17.1386 26.7988Z" fill="black"/>
<path d="M22.4209 26.7985C22.3956 26.9102 22.3296 26.9661 22.218 26.9661H21.4264C21.3503 26.9661 21.3147 26.9356 21.3198 26.8747V26.829C21.3198 26.7985 21.2995 26.7833 21.2488 26.7833C21.1727 26.7833 21.0965 26.7985 21.0153 26.8239C20.9342 26.8493 20.8428 26.8797 20.7363 26.9102C20.6297 26.9407 20.5079 26.9711 20.3709 26.9965C20.2339 27.0219 20.0715 27.0372 19.8787 27.0372C19.6808 27.0372 19.4981 27.0168 19.3307 26.9813C19.1632 26.9458 19.0161 26.8848 18.8943 26.7985C18.7725 26.7173 18.6761 26.6055 18.6152 26.4735C18.5492 26.3415 18.5239 26.1841 18.5289 25.9962C18.534 25.8743 18.5543 25.7322 18.5848 25.5748C18.6152 25.4173 18.6558 25.2396 18.7116 25.0416L19.4017 22.3554C19.4271 22.2437 19.4931 22.1879 19.6047 22.1879H20.442C20.5231 22.1879 20.5587 22.2234 20.5587 22.2996V22.33L19.8229 25.2041C19.7874 25.3564 19.762 25.4834 19.762 25.5849C19.7518 25.7931 19.8077 25.9505 19.9244 26.047C20.0411 26.1435 20.2491 26.1942 20.5333 26.1942C20.7718 26.1942 20.9951 26.1485 21.1929 26.0622C21.3959 25.9759 21.5177 25.8286 21.5735 25.6255L22.4108 22.3554C22.4361 22.2437 22.497 22.1879 22.6036 22.1879H23.4409C23.5271 22.1879 23.5677 22.2285 23.5626 22.3097V22.3402L22.4209 26.7985Z" fill="black"/>
<path d="M26.3232 26.6975C26.3079 26.7636 26.2572 26.8194 26.1709 26.8651C26.0847 26.9057 25.9883 26.9413 25.8715 26.9667C25.7548 26.9921 25.6381 27.0124 25.5113 27.0225C25.3844 27.0327 25.2779 27.0428 25.1814 27.0428C25.014 27.0428 24.8567 27.0327 24.7045 27.0124C24.5522 26.9921 24.4152 26.9464 24.2985 26.8803C24.1818 26.8143 24.0905 26.7128 24.0245 26.5757C23.9585 26.4386 23.9332 26.2609 23.9433 26.0374C23.9535 25.8648 23.989 25.6515 24.055 25.3976L24.6436 23.0872V23.0669C24.6436 23.0212 24.6233 23.0009 24.5725 23.0009H24.1311C24.0347 23.0009 23.9839 22.9603 23.989 22.879C23.989 22.8638 23.989 22.8587 23.9941 22.8486C23.9991 22.8435 23.9991 22.8333 23.9991 22.8181L24.1108 22.356C24.1412 22.2443 24.2123 22.1885 24.329 22.1885H24.7704C24.8313 22.1885 24.8719 22.1529 24.8973 22.0768L25.1307 21.1424C25.1611 21.0257 25.2322 20.9647 25.3438 20.9647H26.1456C26.242 20.9647 26.2927 21.0003 26.2876 21.0764V21.1221L26.0441 22.0768V22.1123C26.0441 22.1631 26.0644 22.1885 26.1151 22.1885H27.3025C27.3938 22.1885 27.4395 22.224 27.4344 22.29V22.3256L27.3126 22.813C27.2822 22.9298 27.2112 22.9908 27.0995 22.9908H25.9121C25.8462 22.9908 25.8005 23.0263 25.7802 23.1025L25.1662 25.4941C25.1561 25.5297 25.151 25.5652 25.1459 25.6058C25.1408 25.6414 25.1358 25.682 25.1358 25.7175C25.1307 25.8546 25.1561 25.9663 25.222 26.0577C25.288 26.1491 25.4149 26.1898 25.6128 26.1898C25.7295 26.1898 25.8259 26.1796 25.902 26.1644C25.9781 26.1441 26.0491 26.1238 26.105 26.0984C26.1608 26.073 26.2115 26.0527 26.2521 26.0324C26.2927 26.012 26.3282 26.007 26.3587 26.007C26.4348 26.007 26.4652 26.0425 26.4652 26.1085V26.1441L26.3232 26.6975Z" fill="black"/>
<path d="M28.2053 26.7985C28.1799 26.9102 28.119 26.9661 28.0125 26.9661H27.1904C27.0991 26.9661 27.0534 26.9204 27.0585 26.8392V26.8036L28.1951 22.3656C28.2205 22.2539 28.2865 22.1981 28.4032 22.1981H29.2252C29.3115 22.1981 29.3521 22.2387 29.347 22.3199V22.3504L28.2053 26.7985ZM29.8138 20.8778C29.7123 21.2587 29.4434 21.4516 29.007 21.4516C28.6315 21.4516 28.4488 21.3044 28.4641 21.0149C28.4742 20.7814 28.5605 20.5986 28.7229 20.4767C28.8852 20.3548 29.0831 20.2888 29.3165 20.2888C29.6768 20.2888 29.8544 20.4259 29.8443 20.7052C29.8443 20.7357 29.8392 20.7661 29.8341 20.7864C29.8291 20.8169 29.824 20.8474 29.8138 20.8778Z" fill="black"/>
<path d="M34.3453 24.5646C34.254 24.9251 34.1221 25.2552 33.9445 25.5548C33.7669 25.8594 33.5538 26.1184 33.3 26.3418C33.0463 26.5653 32.7571 26.7379 32.4273 26.8598C32.0974 26.9816 31.7321 27.0476 31.3261 27.0476C30.6766 27.0476 30.1946 26.8902 29.8901 26.5805C29.5857 26.2707 29.4436 25.8391 29.4689 25.2958C29.4791 25.0775 29.5146 24.8439 29.5806 24.59C29.6719 24.2295 29.8039 23.8994 29.9815 23.5998C30.1591 23.2952 30.3722 23.0362 30.6259 22.8178C30.8796 22.5995 31.1688 22.4269 31.4987 22.305C31.8285 22.1831 32.1938 22.1222 32.5998 22.1222C33.2493 22.1222 33.7314 22.2745 34.0358 22.5843C34.3403 22.894 34.4824 23.3205 34.457 23.8639C34.4519 24.0822 34.4113 24.3158 34.3453 24.5646ZM33.1478 24.5443C33.2138 24.2853 33.2544 24.0568 33.2594 23.8588C33.2747 23.5237 33.2087 23.285 33.0565 23.1428C32.9043 22.9956 32.681 22.9245 32.3816 22.9245C31.996 22.9245 31.6712 23.0565 31.4073 23.3155C31.1435 23.5744 30.9354 24.0061 30.7781 24.6154C30.7122 24.8896 30.6716 25.1181 30.6665 25.3009C30.6513 25.636 30.7172 25.8747 30.8644 26.0219C31.0115 26.1692 31.2399 26.2454 31.5443 26.2454C31.9249 26.2454 32.2497 26.1133 32.5135 25.8544C32.7825 25.5954 32.9956 25.1587 33.1478 24.5443Z" fill="black"/>
<path d="M38.745 26.7989C38.7197 26.9106 38.6537 26.9664 38.5421 26.9664H37.72C37.6338 26.9664 37.5932 26.9258 37.5982 26.8446V26.7989L38.3036 24.0467C38.3492 23.8893 38.3746 23.742 38.3797 23.5948C38.3898 23.3663 38.3289 23.2038 38.197 23.1073C38.0651 23.0108 37.8824 22.9651 37.649 22.9651C37.5374 22.9651 37.4257 22.9753 37.309 22.9905C37.1923 23.0108 37.0857 23.0413 36.9893 23.0819C36.8929 23.1276 36.8067 23.1835 36.7305 23.2545C36.6544 23.3256 36.6037 23.412 36.5783 23.5084L35.7309 26.7989C35.7055 26.9106 35.6446 26.9664 35.5381 26.9664H34.7161C34.6247 26.9664 34.579 26.9258 34.5841 26.8446V26.7989L35.7208 22.3608C35.7512 22.2491 35.8222 22.1933 35.9288 22.1933H36.7204C36.7965 22.1933 36.832 22.2238 36.827 22.2745C36.827 22.2847 36.827 22.2948 36.8219 22.2999C36.8168 22.305 36.8168 22.3152 36.8168 22.3304C36.8168 22.3609 36.8473 22.3761 36.9081 22.3761C36.9843 22.3761 37.0604 22.3608 37.1416 22.3355C37.2227 22.3101 37.3192 22.2796 37.4257 22.2491C37.5323 22.2187 37.6541 22.1882 37.7911 22.1628C37.923 22.1374 38.0803 22.1222 38.2579 22.1222C38.6892 22.1222 39.0241 22.2085 39.2626 22.3812C39.5011 22.5538 39.6127 22.828 39.5975 23.1987C39.5874 23.417 39.5468 23.6658 39.4707 23.9604L38.745 26.7989Z" fill="black"/>
<path d="M43.094 25.2247C43.0838 25.4989 43.0179 25.7477 42.9062 25.9712C42.7895 26.1997 42.6424 26.3875 42.4546 26.5449C42.2669 26.7024 42.0436 26.8242 41.795 26.9105C41.5413 26.9969 41.2673 27.0426 40.9729 27.0426C40.5873 27.0426 40.2626 27.007 40.0038 26.9309C39.745 26.8547 39.6181 26.7531 39.6232 26.6262V26.5906L39.7551 26.0626C39.7805 25.9559 39.8414 25.9051 39.9378 25.9051C39.9733 25.9051 40.019 25.9204 40.0647 25.9559C40.1103 25.9915 40.1763 26.027 40.2625 26.0727C40.3488 26.1184 40.4554 26.154 40.5822 26.1895C40.7091 26.225 40.8816 26.2403 41.0846 26.2403C41.3637 26.2403 41.5666 26.1844 41.7036 26.0727C41.8406 25.961 41.9117 25.8188 41.9218 25.636C41.9269 25.5548 41.9015 25.4837 41.8508 25.4177C41.8001 25.3517 41.7189 25.2755 41.5971 25.1892L40.978 24.7423C40.7953 24.6052 40.6583 24.4681 40.567 24.3209C40.4757 24.1787 40.4401 24.0061 40.4452 23.8182C40.4554 23.5592 40.5163 23.3256 40.6279 23.1174C40.7395 22.9092 40.8867 22.7315 41.0694 22.5843C41.252 22.437 41.4753 22.3202 41.7239 22.2441C41.9777 22.1628 42.2466 22.1222 42.5358 22.1222C42.6931 22.1222 42.8454 22.1323 42.9925 22.1476C43.1346 22.1679 43.2614 22.1933 43.3731 22.2288C43.4796 22.2644 43.5659 22.3101 43.6319 22.3608C43.6928 22.4116 43.7232 22.4624 43.7232 22.5183V22.5538L43.5811 23.1022C43.5659 23.1479 43.5507 23.1784 43.5304 23.2088C43.5101 23.2342 43.4695 23.2495 43.4086 23.2495C43.368 23.2495 43.3223 23.2342 43.2716 23.1987C43.2259 23.1631 43.165 23.1276 43.094 23.087C43.023 23.0464 42.9316 23.0108 42.8251 22.9753C42.7185 22.9397 42.5815 22.9245 42.4191 22.9245C42.1553 22.9245 41.9523 22.9702 41.8203 23.0616C41.6833 23.153 41.6123 23.2799 41.6072 23.4323C41.6022 23.5135 41.6225 23.5846 41.6681 23.6455C41.7138 23.7065 41.7798 23.7725 41.8762 23.8385L42.5663 24.331C42.754 24.4732 42.8961 24.6154 42.9824 24.7626C43.0635 24.9099 43.1041 25.0622 43.094 25.2247Z" fill="black"/>
<path d="M49.5025 22.8229C49.4721 22.9397 49.401 23.0006 49.2843 23.0006H48.5638C48.4978 23.0006 48.4522 23.0361 48.4319 23.1123L47.483 26.7988C47.4576 26.9105 47.3967 26.9663 47.2901 26.9663H46.4529C46.3717 26.9663 46.3362 26.9257 46.3362 26.8445V26.7988L47.2851 23.1123C47.2851 23.1021 47.2851 23.092 47.2901 23.0869C47.2952 23.0818 47.2952 23.0768 47.2952 23.0717C47.2952 23.0209 47.2699 22.9955 47.209 22.9955H46.7675C46.6812 22.9955 46.6406 22.96 46.6457 22.8838V22.8533L46.7675 22.3506C46.7979 22.2389 46.869 22.1831 46.9755 22.1831H47.417C47.483 22.1831 47.5286 22.1475 47.5489 22.0714L47.6707 21.589C47.7823 21.1523 47.9802 20.8171 48.2695 20.5836C48.5536 20.35 48.919 20.2383 49.3655 20.2383C49.6345 20.2383 49.8324 20.2637 49.9491 20.3144C50.0658 20.3652 50.1216 20.4312 50.1216 20.5074V20.5328L49.9897 21.0152C49.9592 21.1117 49.9085 21.1624 49.8273 21.1624C49.7715 21.1624 49.7207 21.1472 49.6751 21.1117C49.6294 21.0761 49.5482 21.0609 49.4315 21.0609C49.1067 21.0609 48.8936 21.2538 48.7972 21.6448L48.6957 22.0714V22.1171C48.6957 22.1628 48.7211 22.1831 48.7769 22.1831H49.4975C49.5888 22.1831 49.6345 22.2186 49.6294 22.2846V22.31L49.5025 22.8229Z" fill="black"/>
<path d="M54.0997 24.5646C54.0084 24.9251 53.8765 25.2552 53.6989 25.5548C53.5213 25.8594 53.3081 26.1184 53.0544 26.3418C52.8007 26.5653 52.5115 26.7379 52.1817 26.8598C51.8518 26.9816 51.4865 27.0476 51.0805 27.0476C50.431 27.0476 49.949 26.8902 49.6445 26.5805C49.3401 26.2707 49.198 25.8391 49.2233 25.2958C49.2335 25.0775 49.269 24.8439 49.335 24.59C49.4263 24.2295 49.5582 23.8994 49.7358 23.5998C49.9134 23.2952 50.1266 23.0362 50.3803 22.8178C50.634 22.5995 50.9232 22.4269 51.2531 22.305C51.5829 22.1831 51.9482 22.1222 52.3542 22.1222C53.0037 22.1222 53.4857 22.2745 53.7902 22.5843C54.0947 22.894 54.2367 23.3205 54.2114 23.8639C54.2012 24.0822 54.1657 24.3158 54.0997 24.5646ZM52.9022 24.5443C52.9682 24.2853 53.0088 24.0568 53.0138 23.8588C53.0291 23.5237 52.9631 23.285 52.8109 23.1428C52.6586 22.9956 52.4354 22.9245 52.136 22.9245C51.7503 22.9245 51.4256 23.0565 51.1617 23.3155C50.8979 23.5744 50.6898 24.0061 50.5325 24.6154C50.4665 24.8896 50.426 25.1181 50.4209 25.3009C50.4057 25.636 50.4716 25.8747 50.6188 26.0219C50.7659 26.1692 50.9943 26.2454 51.2987 26.2454C51.6793 26.2454 52.0041 26.1133 52.2679 25.8544C52.5318 25.5954 52.7449 25.1587 52.9022 24.5443Z" fill="black"/>
<path d="M58.1286 23.0162C58.1083 23.1076 58.0525 23.1533 57.9662 23.1533C57.9307 23.1533 57.8952 23.1482 57.8698 23.1431C57.8445 23.1381 57.8039 23.1279 57.7582 23.1178C57.7125 23.1076 57.6516 23.0974 57.5806 23.0924C57.5096 23.0822 57.4081 23.0771 57.2863 23.0771C57.0275 23.0771 56.8093 23.133 56.6266 23.2447C56.449 23.3564 56.3222 23.5392 56.2562 23.7931L55.4849 26.7941C55.4595 26.9058 55.3987 26.9616 55.3022 26.9616H54.465C54.3787 26.9616 54.3381 26.9159 54.3432 26.8347V26.7992L55.4798 22.3612C55.5103 22.2495 55.5763 22.1936 55.6828 22.1936H56.4846C56.5505 22.1936 56.586 22.219 56.581 22.2698C56.581 22.285 56.5759 22.3002 56.5708 22.3256C56.5657 22.351 56.5607 22.3815 56.5556 22.417C56.5556 22.4627 56.5759 22.483 56.6266 22.483C56.6926 22.483 56.7687 22.4627 56.8499 22.4272C56.9311 22.3916 57.0224 22.351 57.129 22.3002C57.2305 22.2545 57.3523 22.2139 57.4791 22.1733C57.606 22.1327 57.7531 22.1174 57.9155 22.1174C58.0677 22.1174 58.1692 22.1377 58.22 22.1733C58.2707 22.2088 58.2961 22.2545 58.291 22.3104V22.3561L58.1286 23.0162Z" fill="black"/>
<path d="M64.9082 22.2739C64.9082 22.3094 64.8778 22.3805 64.8169 22.477L61.4983 27.8798C61.2649 28.2606 61.0264 28.5449 60.7778 28.7277C60.5291 28.9105 60.2298 29.0019 59.8695 29.0019C59.5498 29.0019 59.3925 28.9512 59.3976 28.8547V28.8242L59.5295 28.2961C59.5498 28.2098 59.6006 28.1692 59.6817 28.1692C59.7122 28.1692 59.7426 28.1692 59.7781 28.1743C59.8137 28.1793 59.8644 28.1793 59.9304 28.1793C60.0522 28.1793 60.1638 28.154 60.2602 28.0981C60.3566 28.0422 60.453 27.9407 60.5444 27.7934L60.7524 27.4583C60.8032 27.3821 60.8387 27.3263 60.8539 27.2907C60.8691 27.2552 60.8742 27.2196 60.8793 27.1892C60.8793 27.1689 60.8793 27.1435 60.8793 27.1079C60.8793 27.0724 60.8742 27.0419 60.8691 27.0114L60.3718 22.4414V22.3957C60.3769 22.3348 60.3921 22.284 60.4175 22.2485C60.448 22.2129 60.4987 22.1926 60.5697 22.1926H61.4527C61.5034 22.1926 61.5338 22.2028 61.5541 22.2231C61.5694 22.2434 61.5846 22.2688 61.5897 22.3043L61.8231 25.6049C61.8231 25.6861 61.8434 25.7268 61.8738 25.7268C61.9093 25.7268 61.9499 25.6861 62.0007 25.6049L63.8731 22.3043C63.9187 22.2282 63.9898 22.1926 64.0913 22.1926H64.7814C64.8676 22.1926 64.9082 22.218 64.9082 22.2739Z" fill="black"/>
<path d="M78.7304 23.0162C78.7101 23.1076 78.6543 23.1533 78.568 23.1533C78.5325 23.1533 78.497 23.1482 78.4716 23.1431C78.4463 23.1381 78.4057 23.1279 78.36 23.1178C78.3143 23.1076 78.2534 23.0974 78.1824 23.0924C78.1114 23.0822 78.0099 23.0771 77.8881 23.0771C77.6293 23.0771 77.4111 23.133 77.2284 23.2447C77.0508 23.3564 76.924 23.5392 76.858 23.7931L76.0867 26.7941C76.0613 26.9058 76.0005 26.9616 75.904 26.9616H75.0668C74.9805 26.9616 74.9399 26.9159 74.945 26.8347V26.7992L76.0816 22.3612C76.1121 22.2495 76.1781 22.1936 76.2846 22.1936H77.0864C77.1523 22.1936 77.1878 22.219 77.1828 22.2698C77.1828 22.285 77.1777 22.3002 77.1726 22.3256C77.1675 22.351 77.1625 22.3815 77.1574 22.417C77.1574 22.4627 77.1777 22.483 77.2284 22.483C77.2944 22.483 77.3705 22.4627 77.4517 22.4272C77.5329 22.3916 77.6242 22.351 77.7308 22.3002C77.8323 22.2545 77.9541 22.2139 78.0809 22.1733C78.2078 22.1327 78.3549 22.1174 78.5173 22.1174C78.6695 22.1174 78.771 22.1377 78.8218 22.1733C78.8725 22.2088 78.8979 22.2545 78.8928 22.3104V22.3561L78.7304 23.0162Z" fill="black"/>
<path d="M97.277 23.0162C97.2567 23.1076 97.2009 23.1533 97.1147 23.1533C97.0791 23.1533 97.0436 23.1482 97.0182 23.1431C96.9929 23.1381 96.9523 23.1279 96.9066 23.1178C96.8609 23.1076 96.8 23.0974 96.729 23.0924C96.658 23.0822 96.5565 23.0771 96.4347 23.0771C96.1759 23.0771 95.9577 23.133 95.7751 23.2447C95.5975 23.3564 95.4706 23.5392 95.4046 23.7931L94.6333 26.7941C94.608 26.9058 94.5471 26.9616 94.4507 26.9616H93.6134C93.5271 26.9616 93.4866 26.9159 93.4916 26.8347V26.7992L94.6283 22.3612C94.6587 22.2495 94.7247 22.1936 94.8312 22.1936H95.633C95.6989 22.1936 95.7345 22.219 95.7294 22.2698C95.7294 22.285 95.7243 22.3002 95.7192 22.3256C95.7142 22.351 95.7091 22.3815 95.704 22.417C95.704 22.4627 95.7243 22.483 95.7751 22.483C95.841 22.483 95.9171 22.4627 95.9983 22.4272C96.0795 22.3916 96.1708 22.351 96.2774 22.3002C96.3789 22.2545 96.5007 22.2139 96.6275 22.1733C96.7595 22.1377 96.9015 22.1174 97.0639 22.1174C97.2161 22.1174 97.3176 22.1377 97.3684 22.1733C97.4191 22.2088 97.4445 22.2545 97.4394 22.3104V22.3561L97.277 23.0162Z" fill="black"/>
<path d="M81.6277 27.5653C81.5009 28.068 81.2776 28.4285 80.963 28.657C80.6433 28.8855 80.2526 28.9972 79.7858 28.9972C79.4661 28.9972 79.3088 28.9464 79.3138 28.8398V28.8144L79.4458 28.3066C79.461 28.2508 79.4813 28.2152 79.5117 28.1949C79.5422 28.1746 79.5676 28.1695 79.598 28.1695C79.6335 28.1695 79.664 28.1695 79.6843 28.1746C79.7046 28.1797 79.735 28.1797 79.7705 28.1797C79.9786 28.1797 80.141 28.1238 80.2475 28.0121C80.3592 27.9004 80.4403 27.7227 80.5012 27.4739L81.8053 22.3606C81.8307 22.2488 81.8967 22.193 82.0083 22.193H82.8303C82.9217 22.193 82.9673 22.2336 82.9623 22.3149V22.3453L81.6277 27.5653ZM83.4291 20.8778C83.3276 21.2587 83.0536 21.4516 82.6223 21.4516C82.2468 21.4516 82.0641 21.3044 82.0793 21.0149C82.0895 20.7814 82.1757 20.5986 82.3381 20.4767C82.5005 20.3548 82.6984 20.2888 82.9318 20.2888C83.2921 20.2888 83.4697 20.4259 83.4595 20.7052C83.4595 20.7357 83.4545 20.7661 83.4494 20.7864C83.4392 20.8169 83.4342 20.8474 83.4291 20.8778Z" fill="black"/>
<path d="M101.26 26.7989C101.235 26.9106 101.169 26.9664 101.057 26.9664H100.235C100.149 26.9664 100.108 26.9258 100.113 26.8446V26.7989L100.819 24.0467C100.864 23.8893 100.89 23.742 100.895 23.5948C100.905 23.3663 100.844 23.2038 100.712 23.1073C100.58 23.0108 100.398 22.9651 100.164 22.9651C100.053 22.9651 99.9409 22.9753 99.8242 22.9905C99.7074 23.0108 99.606 23.0413 99.5045 23.0819C99.403 23.1225 99.3218 23.1835 99.2457 23.2545C99.1696 23.3256 99.1188 23.412 99.0935 23.5084L98.2461 26.7989C98.2207 26.9106 98.1598 26.9664 98.0532 26.9664H97.2312C97.1399 26.9664 97.0942 26.9258 97.0993 26.8446V26.7989L98.2359 22.3608C98.2663 22.2491 98.3374 22.1933 98.4439 22.1933H99.2355C99.3117 22.1933 99.3472 22.2238 99.3421 22.2745C99.3421 22.2847 99.3421 22.2948 99.337 22.2999C99.332 22.305 99.3319 22.3152 99.3319 22.3304C99.3319 22.3609 99.3624 22.3761 99.4233 22.3761C99.4994 22.3761 99.5755 22.3608 99.6567 22.3355C99.7379 22.3101 99.8343 22.2796 99.9409 22.2491C100.047 22.2187 100.169 22.1882 100.306 22.1628C100.438 22.1374 100.595 22.1222 100.773 22.1222C101.204 22.1222 101.539 22.2085 101.778 22.3812C102.016 22.5538 102.128 22.828 102.113 23.1987C102.103 23.417 102.062 23.6658 101.986 23.9604L101.26 26.7989Z" fill="black"/>
<path d="M107.075 24.6002C107.04 24.7119 106.969 24.7677 106.867 24.7677H103.945C103.863 24.7677 103.808 24.8083 103.777 24.8896C103.747 24.9708 103.726 25.0978 103.721 25.2704C103.706 25.5751 103.797 25.8137 103.99 25.9864C104.183 26.159 104.483 26.2454 104.899 26.2454C105.107 26.2454 105.294 26.225 105.462 26.1895C105.629 26.154 105.776 26.1133 105.898 26.0727C106.02 26.0321 106.116 25.9965 106.193 25.9559C106.269 25.9204 106.319 25.9001 106.35 25.9001C106.431 25.9001 106.467 25.9305 106.467 25.9915V26.0118L106.314 26.5297C106.294 26.6211 106.228 26.7024 106.122 26.7684C106.015 26.8344 105.883 26.8852 105.721 26.9309C105.563 26.9766 105.381 27.007 105.183 27.0223C104.98 27.0426 104.772 27.0527 104.548 27.0527C103.833 27.0527 103.315 26.9055 102.981 26.611C102.651 26.3164 102.493 25.895 102.519 25.3466C102.529 25.1232 102.564 24.8845 102.635 24.6306C102.747 24.2092 102.899 23.8436 103.092 23.5287C103.285 23.2139 103.508 22.955 103.762 22.7468C104.016 22.5386 104.3 22.3862 104.604 22.2796C104.909 22.173 105.228 22.1222 105.563 22.1222C106.172 22.1222 106.609 22.2644 106.878 22.5436C107.147 22.8229 107.268 23.1987 107.248 23.6709C107.243 23.7776 107.223 23.9197 107.187 24.1076C107.147 24.2853 107.111 24.4529 107.075 24.6002ZM105.949 24.0162C106.015 24.0162 106.061 23.9857 106.086 23.9248C106.111 23.8639 106.127 23.7623 106.132 23.6303C106.142 23.3967 106.081 23.2139 105.944 23.0768C105.807 22.9448 105.594 22.8788 105.299 22.8788C105.102 22.8788 104.924 22.9194 104.762 23.0007C104.599 23.0819 104.467 23.1784 104.356 23.2901C104.244 23.4018 104.163 23.5186 104.102 23.6405C104.041 23.7623 104.011 23.874 104.006 23.9654C104.006 24.001 104.036 24.0213 104.097 24.0213H105.949V24.0162Z" fill="black"/>
<path d="M112.505 22.2739C112.505 22.3094 112.474 22.3805 112.413 22.477L109.095 27.8798C108.861 28.2606 108.623 28.5449 108.374 28.7277C108.126 28.9105 107.826 29.0019 107.466 29.0019C107.146 29.0019 106.989 28.9512 106.994 28.8547V28.8242L107.126 28.2961C107.146 28.2098 107.197 28.1692 107.278 28.1692C107.309 28.1692 107.339 28.1692 107.375 28.1743C107.41 28.1793 107.461 28.1793 107.527 28.1793C107.649 28.1793 107.76 28.154 107.857 28.0981C107.953 28.0422 108.049 27.9407 108.141 27.7934L108.349 27.4583C108.4 27.3821 108.435 27.3263 108.45 27.2907C108.466 27.2552 108.471 27.2196 108.476 27.1892C108.476 27.1689 108.476 27.1435 108.476 27.1079C108.476 27.0724 108.471 27.0419 108.466 27.0114L107.968 22.4414V22.3957C107.973 22.3348 107.989 22.284 108.014 22.2485C108.044 22.2129 108.095 22.1926 108.166 22.1926H109.049C109.1 22.1926 109.13 22.2028 109.151 22.2231C109.166 22.2434 109.181 22.2688 109.186 22.3043L109.42 25.6049C109.42 25.6861 109.44 25.7268 109.47 25.7268C109.506 25.7268 109.546 25.6861 109.597 25.6049L111.47 22.3043C111.515 22.2282 111.586 22.1926 111.688 22.1926H112.378C112.464 22.1926 112.51 22.218 112.505 22.2739Z" fill="black"/>
<path d="M92.3701 26.7985C92.3448 26.9102 92.2788 26.9661 92.1672 26.9661H91.3756C91.2995 26.9661 91.264 26.9356 91.269 26.8747V26.829C91.269 26.7985 91.2487 26.7833 91.198 26.7833C91.1219 26.7833 91.0458 26.7985 90.9646 26.8239C90.8834 26.8493 90.7921 26.8797 90.6855 26.9102C90.5789 26.9407 90.4571 26.9711 90.3201 26.9965C90.1831 27.0219 90.0208 27.0372 89.8279 27.0372C89.63 27.0372 89.4474 27.0168 89.2799 26.9813C89.1124 26.9458 88.9653 26.8848 88.8435 26.7985C88.7217 26.7173 88.6253 26.6055 88.5644 26.4735C88.4985 26.3415 88.4731 26.1841 88.4782 25.9962C88.4832 25.8743 88.5035 25.7322 88.534 25.5748C88.5644 25.4173 88.605 25.2396 88.6608 25.0416L89.3509 22.3554C89.3763 22.2437 89.4423 22.1879 89.5539 22.1879H90.3912C90.4724 22.1879 90.5079 22.2234 90.5079 22.2996V22.33L89.7721 25.2041C89.7366 25.3564 89.7112 25.4834 89.7112 25.5849C89.7011 25.7931 89.7569 25.9505 89.8736 26.047C89.9903 26.1435 90.1983 26.1942 90.4825 26.1942C90.721 26.1942 90.9443 26.1485 91.1422 26.0622C91.3451 25.9759 91.4669 25.8286 91.5227 25.6255L92.36 22.3554C92.3854 22.2437 92.4463 22.1879 92.5528 22.1879H93.3901C93.4763 22.1879 93.5169 22.2285 93.5119 22.3097V22.3402L92.3701 26.7985Z" fill="black"/>
<path d="M87.9706 24.5646C87.8793 24.9251 87.7473 25.2552 87.5697 25.5548C87.3921 25.8594 87.179 26.1184 86.9253 26.3418C86.6716 26.5653 86.3823 26.7379 86.0525 26.8598C85.7227 26.9816 85.3573 27.0476 84.9514 27.0476C84.3019 27.0476 83.8198 26.8902 83.5154 26.5805C83.2109 26.2707 83.0688 25.8391 83.0942 25.2958C83.1043 25.0775 83.1399 24.8439 83.2058 24.59C83.2972 24.2295 83.4291 23.8994 83.6067 23.5998C83.7843 23.2952 83.9974 23.0362 84.2511 22.8178C84.5048 22.5995 84.7941 22.4269 85.1239 22.305C85.4537 22.1831 85.8191 22.1222 86.225 22.1222C86.8745 22.1222 87.3566 22.2745 87.6611 22.5843C87.9655 22.894 88.1076 23.3205 88.0822 23.8639C88.0721 24.0822 88.0366 24.3158 87.9706 24.5646ZM86.7731 24.5443C86.839 24.2853 86.8796 24.0568 86.8847 23.8588C86.8999 23.5237 86.834 23.285 86.6817 23.1428C86.5295 22.9956 86.3062 22.9245 86.0068 22.9245C85.6212 22.9245 85.2964 23.0565 85.0326 23.3155C84.7687 23.5744 84.5607 24.0061 84.4034 24.6154C84.3374 24.8896 84.2968 25.1181 84.2917 25.3009C84.2765 25.636 84.3425 25.8747 84.4896 26.0219C84.6368 26.1692 84.8651 26.2454 85.1696 26.2454C85.5501 26.2454 85.8749 26.1133 86.1388 25.8544C86.4026 25.5954 86.6158 25.1587 86.7731 24.5443Z" fill="black"/>
<path d="M73.8235 26.7985C73.7981 26.9102 73.7322 26.9661 73.6205 26.9661H72.829C72.7528 26.9661 72.7173 26.9356 72.7224 26.8747V26.829C72.7224 26.7985 72.7021 26.7833 72.6514 26.7833C72.5752 26.7833 72.4991 26.7985 72.4179 26.8239C72.3367 26.8493 72.2454 26.8797 72.1388 26.9102C72.0323 26.9407 71.9105 26.9711 71.7735 26.9965C71.6365 27.0219 71.4741 27.0372 71.2813 27.0372C71.0834 27.0372 70.9007 27.0168 70.7333 26.9813C70.5658 26.9458 70.4187 26.8848 70.2969 26.7985C70.1751 26.7173 70.0787 26.6055 70.0178 26.4735C69.9518 26.3415 69.9265 26.1841 69.9315 25.9962C69.9366 25.8743 69.9569 25.7322 69.9874 25.5748C70.0178 25.4173 70.0584 25.2396 70.1142 25.0416L70.8043 22.3554C70.8297 22.2437 70.8956 22.1879 71.0073 22.1879H71.8445C71.9257 22.1879 71.9613 22.2234 71.9613 22.2996V22.33L71.2255 25.2041C71.19 25.3564 71.1646 25.4834 71.1646 25.5849C71.1544 25.7931 71.2103 25.9505 71.327 26.047C71.4437 26.1435 71.6517 26.1942 71.9359 26.1942C72.1744 26.1942 72.3976 26.1485 72.5955 26.0622C72.7985 25.9759 72.9203 25.8286 72.9761 25.6255L73.8134 22.3554C73.8387 22.2437 73.8996 22.1879 74.0062 22.1879H74.8434C74.9297 22.1879 74.9703 22.2285 74.9652 22.3097V22.3402L73.8235 26.7985Z" fill="black"/>
<path d="M69.4244 24.5646C69.3331 24.9251 69.2011 25.2552 69.0235 25.5548C68.8459 25.8594 68.6328 26.1184 68.3791 26.3418C68.1254 26.5653 67.8362 26.7379 67.5063 26.8598C67.1765 26.9816 66.8112 27.0476 66.4052 27.0476C65.7557 27.0476 65.2737 26.8902 64.9692 26.5805C64.6648 26.2707 64.5227 25.8391 64.5481 25.2958C64.5582 25.0775 64.5937 24.8439 64.6597 24.59C64.751 24.2295 64.8829 23.8994 65.0605 23.5998C65.2381 23.2952 65.4513 23.0362 65.705 22.8178C65.9587 22.5995 66.2479 22.4269 66.5778 22.305C66.9076 22.1831 67.2729 22.1222 67.6789 22.1222C68.3284 22.1222 68.8104 22.2745 69.1149 22.5843C69.4193 22.894 69.5614 23.3205 69.5361 23.8639C69.531 24.0822 69.4904 24.3158 69.4244 24.5646ZM68.2269 24.5443C68.2929 24.2853 68.3335 24.0568 68.3385 23.8588C68.3538 23.5237 68.2878 23.285 68.1356 23.1428C67.9833 22.9956 67.7601 22.9245 67.4607 22.9245C67.075 22.9245 66.7503 23.0565 66.4864 23.3155C66.2226 23.5744 66.0145 24.0061 65.8572 24.6154C65.7912 24.8896 65.7507 25.1181 65.7456 25.3009C65.7304 25.636 65.7963 25.8747 65.9435 26.0219C66.0906 26.1692 66.319 26.2454 66.6234 26.2454C67.004 26.2454 67.3287 26.1133 67.5926 25.8544C67.8615 25.5954 68.0696 25.1587 68.2269 24.5443Z" fill="black"/>
</svg>
