<svg width="88" height="37" viewBox="0 0 88 37" fill="none" xmlns="http://www.w3.org/2000/svg">
<path fill-rule="evenodd" clip-rule="evenodd" d="M58.8522 9.64263C58.8445 5.93831 55.8354 2.94214 52.1315 2.94935C48.4277 2.95705 45.4315 5.96573 45.4387 9.67006C45.4464 13.3686 48.4469 16.3629 52.1455 16.3629H52.7252V15.8313V15.2381C49.6588 15.559 46.9132 13.333 46.5928 10.2671C46.272 7.20067 48.4979 4.45514 51.5639 4.13474C54.6298 3.81386 57.3753 6.03982 57.6962 9.10575C57.9699 11.7233 56.378 14.1759 53.8764 14.9927C53.8355 15.2703 53.8148 15.5508 53.8153 15.8313V16.1786C56.7716 15.4041 58.8325 12.7321 58.8315 9.67679" fill="#0075C9"/>
<mask id="mask0_1982_150" style="mask-type:alpha" maskUnits="userSpaceOnUse" x="74" y="2" width="14" height="15">
<path fill-rule="evenodd" clip-rule="evenodd" d="M74.5146 2.92712H87.9075V16.3379H74.5146V2.92712Z" fill="white"/>
</mask>
<g mask="url(#mask0_1982_150)">
<path fill-rule="evenodd" clip-rule="evenodd" d="M87.9075 9.64264C87.9012 13.3465 84.8935 16.3441 81.1897 16.3379C77.7239 16.3326 74.8336 13.6871 74.5214 10.2353C74.913 10.2762 75.2993 10.3585 75.6731 10.4807C76.1412 13.5394 78.9993 15.6398 82.0585 15.1722C85.1167 14.7041 87.2171 11.8455 86.7495 8.78728C86.2819 5.72857 83.4233 3.62817 80.3641 4.09578C77.7533 4.49508 75.7751 6.66475 75.6187 9.30204C75.2565 9.20775 74.8875 9.14376 74.5146 9.11105C74.8038 5.41827 78.0314 2.65879 81.7236 2.94792C85.2201 3.22118 87.9156 6.1423 87.9075 9.64938" fill="#E62644"/>
</g>
<path fill-rule="evenodd" clip-rule="evenodd" d="M79.5171 16.1448C79.3232 19.2251 76.6686 21.5656 73.5883 21.3712C70.5074 21.1774 68.1674 18.5228 68.3618 15.4424C68.5052 13.1577 70.0278 11.1916 72.2042 10.481C72.2456 10.2034 72.2663 9.92296 72.2653 9.64249V9.29515C68.6735 10.214 66.5063 13.8707 67.4251 17.4629C68.3445 21.0552 72.0017 23.222 75.5934 22.3031C78.3721 21.5916 80.3917 19.1944 80.6212 16.3353C80.2488 16.3031 79.8794 16.2391 79.5171 16.1448ZM73.9351 10.2082C76.7052 10.2087 79.0572 12.2389 79.4627 14.9791C79.837 15.1013 80.2233 15.1836 80.6145 15.2245C80.3143 11.7578 77.4148 9.09502 73.9351 9.09021H73.3559V9.6218V10.215C73.5512 10.2049 73.747 10.2049 73.9419 10.215" fill="#00953A"/>
<path fill-rule="evenodd" clip-rule="evenodd" d="M66.07 16.4037C65.7332 20.0921 62.4701 22.8093 58.7811 22.472C55.0927 22.1353 52.3755 18.8721 52.7123 15.1832C52.9702 12.3655 54.9681 10.0125 57.7074 9.30195V9.64929C57.7078 9.92976 57.6872 10.2102 57.6458 10.4878C54.7064 11.4423 53.0972 14.5987 54.0521 17.5376C55.0061 20.4775 58.1625 22.0867 61.1019 21.1322C63.2889 20.4221 64.8187 18.4463 64.9587 16.1516C65.3209 16.2464 65.6904 16.3099 66.0633 16.3426M58.8249 10.2357V9.64256V9.11096H59.4046C62.8843 9.11577 65.7833 11.7786 66.0835 15.2452C65.6923 15.2043 65.306 15.1221 64.9318 14.9999C64.4887 12.0321 61.7807 9.94371 58.798 10.2699" fill="#FFA400"/>
<path fill-rule="evenodd" clip-rule="evenodd" d="M66.6765 15.2451C63.9065 15.2446 61.555 13.2145 61.1494 10.4742C60.7746 10.3516 60.3888 10.2693 59.9972 10.2289C60.2945 13.697 63.1959 16.3612 66.6765 16.3627H67.2558V15.8311V15.2384C67.0609 15.2485 66.8651 15.2485 66.6698 15.2384M66.6765 2.92896C63.1762 2.92896 60.2647 5.62108 59.9905 9.11085C60.3633 9.14356 60.7328 9.20706 61.0946 9.30184C61.2889 6.22147 63.943 3.88101 67.0239 4.07537C70.1042 4.26925 72.4442 6.92385 72.2503 10.0042C72.1065 12.2889 70.5839 14.2546 68.408 14.9656C68.3671 15.2432 68.3464 15.5232 68.3469 15.8041V16.1515C71.9376 15.2138 74.0886 11.5422 73.1509 7.95144C72.3807 5.0029 69.7237 2.94194 66.6765 2.92896Z" fill="#262729"/>
<path fill-rule="evenodd" clip-rule="evenodd" d="M16.3955 23.4183L16.013 24.811H15.6763C14.9301 24.811 15.0162 24.5868 15.3261 23.3716C15.6364 22.1574 15.8413 21.8803 16.3031 21.8803C16.7655 21.8803 16.752 22.1771 16.6399 22.5403H17.7752C17.96 21.8273 17.8344 21.2202 16.5076 21.2202C15.036 21.2202 14.6333 21.5305 14.158 23.3716C13.7159 25.0814 13.8607 25.5437 15.4781 25.5437C15.9948 25.5528 16.5105 25.5038 17.0161 25.3984L17.5443 23.4183H16.3955Z" fill="#1D1D1B"/>
<path fill-rule="evenodd" clip-rule="evenodd" d="M19.0953 24.7911C18.95 24.7911 18.8971 24.7449 18.9235 24.6261L19.1809 23.6163H20.6992L20.8709 22.9563H19.3526L19.5244 22.2957C19.5605 22.097 19.7385 21.9561 19.94 21.9662H21.148L21.3198 21.3062H19.5508C18.8182 21.3062 18.6002 21.438 18.3164 22.5401L17.7752 24.5467C17.6169 25.2068 17.8146 25.5175 18.3693 25.5175H19.8871C20.1532 25.5296 20.3942 25.3621 20.475 25.1081L20.6001 24.7844L19.0953 24.7911Z" fill="#1D1D1B"/>
<path fill-rule="evenodd" clip-rule="evenodd" d="M36.4485 24.7911C36.2965 24.7911 36.2503 24.7449 36.2767 24.6261L36.5341 23.6163H38.0524L38.2237 22.9563H36.7059L36.8776 22.2957C36.9161 22.099 37.0922 21.959 37.2933 21.9662H38.508L38.673 21.3062H36.9171C36.1844 21.3062 35.9664 21.438 35.6826 22.5401L35.1611 24.5602C35.0028 25.2202 35.201 25.5305 35.7552 25.5305H37.2803C37.5458 25.5426 37.7868 25.3751 37.8677 25.1216L37.9928 24.7978L36.4485 24.7911Z" fill="#1D1D1B"/>
<path fill-rule="evenodd" clip-rule="evenodd" d="M11.4254 24.791H11.1747L11.9074 21.9531H12.2701C12.9302 21.9531 12.9302 22.1706 12.6136 23.392C12.2971 24.613 12.1119 24.7978 11.485 24.7978M12.4419 21.3128H10.9241L9.85463 25.3919C9.8402 25.4443 9.87099 25.4992 9.92343 25.5136C9.93112 25.516 9.93882 25.517 9.947 25.5175H11.2671C12.9634 25.5175 13.2472 25.1937 13.7158 23.3853C14.1252 21.8146 13.8678 21.2931 12.3957 21.2931" fill="#1D1D1B"/>
<path fill-rule="evenodd" clip-rule="evenodd" d="M33.6761 21.3126H32.1578L31.095 25.4119C31.0768 25.4591 31.1003 25.5125 31.1484 25.5312C31.1605 25.5356 31.1739 25.538 31.1874 25.537H32.1977L33.1214 21.9727H33.4976C33.9931 21.9727 34.059 22.1507 33.9267 22.6327L33.2142 25.3984C33.1955 25.4461 33.2195 25.4995 33.2671 25.5178C33.2796 25.5226 33.2931 25.525 33.3061 25.524H34.3231L35.0688 22.6327C35.3262 21.6292 34.8903 21.3126 33.6761 21.3126Z" fill="#1D1D1B"/>
<path fill-rule="evenodd" clip-rule="evenodd" d="M24.8905 21.3126L24.7192 21.9726H25.8411C25.6674 22.1049 25.5462 22.2945 25.4981 22.5071L24.7587 25.3652C24.7404 25.4128 24.764 25.4667 24.8116 25.485C24.8241 25.4898 24.8376 25.4917 24.8511 25.4908H25.9402L26.8576 21.9726H27.4118C27.6856 21.9986 27.9406 21.8312 28.0262 21.57L28.1315 21.2861L24.8905 21.3126Z" fill="#1D1D1B"/>
<path fill-rule="evenodd" clip-rule="evenodd" d="M9.10189 25.5173L10.1579 21.418C10.1761 21.3704 10.1526 21.3175 10.1049 21.2983C10.0924 21.2939 10.079 21.292 10.0655 21.293H8.99653L7.94008 25.3855C7.92565 25.438 7.95643 25.4923 8.00935 25.5072C8.01705 25.5092 8.02475 25.5101 8.03245 25.5106L9.10189 25.5173Z" fill="#1D1D1B"/>
<path fill-rule="evenodd" clip-rule="evenodd" d="M28.9366 24.8639C28.4483 24.8639 28.3757 24.6854 28.7187 23.3716C28.9963 22.2761 29.2734 21.8932 29.7025 21.8932C30.1312 21.8932 30.2437 22.1506 29.9334 23.3716C29.6231 24.5935 29.3128 24.8639 28.9366 24.8639ZM29.8805 21.2332C28.6066 21.2332 28.0524 21.4646 27.5439 23.4052C27.1085 25.0813 27.4583 25.5701 28.7586 25.5701C30.059 25.5701 30.6002 25.2993 31.0885 23.4052C31.445 22.0317 31.3723 21.2332 29.8805 21.2332Z" fill="#1D1D1B"/>
<path fill-rule="evenodd" clip-rule="evenodd" d="M7.21414 23.8274C7.18864 23.7197 7.14149 23.6187 7.07559 23.5306C7.54416 23.4017 7.90401 23.0269 8.01273 22.5535C8.19121 21.893 7.75535 21.3191 6.69265 21.3191H5.069L4.01302 25.4184C3.99474 25.4655 4.01832 25.5194 4.06594 25.5377C4.07845 25.542 4.09192 25.5444 4.10539 25.5435H5.12144L6.0326 21.9729H6.46173C6.85092 21.9729 6.99621 22.2168 6.91058 22.5401C6.82302 22.9312 6.47279 23.2069 6.07205 23.2001H5.89405L6.31644 25.2466C6.33953 25.4237 6.50166 25.5488 6.67869 25.5257C6.68302 25.5252 6.68783 25.5242 6.69265 25.5237H7.59708L7.21414 23.8274Z" fill="#1D1D1B"/>
<path fill-rule="evenodd" clip-rule="evenodd" d="M21.0425 24.085C20.6134 25.115 21.1681 25.5831 22.3097 25.5831C23.3464 25.5831 23.9338 25.3387 24.1782 24.3756C24.2682 24.0658 24.2042 23.7324 24.0064 23.4774C23.6168 23.055 22.8644 22.9756 22.6002 22.7317C22.4857 22.6124 22.4497 22.4378 22.5079 22.2829C22.5574 22.0202 22.7956 21.8359 23.0626 21.8537C23.5311 21.8537 23.5509 22.1443 23.432 22.5138H24.4418C24.6795 21.7946 24.3697 21.2332 23.1814 21.2332C22.1779 21.2332 21.6366 21.6228 21.4452 22.382C21.3903 22.636 21.423 22.9011 21.5375 23.1344C21.8146 23.6097 22.5411 23.6626 22.9437 23.9465C23.0919 24.0528 23.1468 24.2471 23.0756 24.415C23.0477 24.7301 22.7701 24.963 22.4554 24.9365C22.1187 24.9365 21.9137 24.7383 22.1052 24.1245L21.0425 24.085Z" fill="#1D1D1B"/>
<mask id="mask1_1982_150" style="mask-type:alpha" maskUnits="userSpaceOnUse" x="0" y="21" width="5" height="5">
<path fill-rule="evenodd" clip-rule="evenodd" d="M0 21.2997H4.19524V25.5243H0V21.2997Z" fill="white"/>
</mask>
<g mask="url(#mask1_1982_150)">
<path fill-rule="evenodd" clip-rule="evenodd" d="M1.87398 24.8173H1.27311L1.57715 23.643H2.14482C2.59367 23.643 2.73896 23.9134 2.65285 24.2434C2.5523 24.6004 2.21843 24.8414 1.84752 24.8241M2.46138 21.9992C2.91022 21.9992 3.05551 22.1772 2.96988 22.5072C2.8905 22.829 2.60185 23.0556 2.26991 23.0551H1.7489L2.03273 21.9727H2.46811M3.18107 23.2928C3.65398 23.2144 4.03692 22.8651 4.15815 22.4018C4.32941 21.7413 3.90702 21.2997 2.87751 21.2997H1.06865L0.00593835 25.3985C-0.0123427 25.4461 0.0112302 25.4995 0.0593383 25.5178C0.0713654 25.5226 0.0853167 25.525 0.098787 25.5241H1.73542C3.05551 25.5241 3.62992 25.2402 3.82813 24.3358C3.95225 23.9124 3.70978 23.4684 3.28643 23.3443C3.24746 23.3327 3.20801 23.3246 3.1676 23.3193" fill="#1D1D1B"/>
</g>
<path fill-rule="evenodd" clip-rule="evenodd" d="M12.0656 10.2301L14.4749 1.69524C14.7837 0.736931 15.6535 0.0691903 16.6595 0.0186768H24.0854C24.1547 0.0196389 24.21 0.0768876 24.2091 0.146163C24.2086 0.188017 24.1869 0.227466 24.1513 0.249596C19.8837 3.23663 15.9056 6.61815 12.2701 10.3489C12.221 10.3975 12.1416 10.3966 12.093 10.3475C12.0642 10.3181 12.0517 10.2768 12.0589 10.2368" fill="#E2231A"/>
<path fill-rule="evenodd" clip-rule="evenodd" d="M17.9337 15.372L20.3362 6.94968C20.3588 6.88426 20.3237 6.81258 20.2583 6.79045C20.2145 6.77505 20.1654 6.78563 20.1317 6.81739C16.3413 10.132 12.8376 13.7599 9.65619 17.6624C9.59028 17.748 9.62348 17.8803 9.7423 17.8803H20.1515C24.5408 17.8803 26.9366 16.5141 27.8146 13.26C28.5208 10.6199 27.1546 8.80425 24.917 8.33568C24.8776 8.33568 24.8444 8.25005 24.917 8.24331C26.7918 7.92002 28.6791 7.16761 29.3593 4.42786C30.0853 1.4644 27.8281 -0.159252 25.2273 0.0124942L21.2671 13.9595C21.0203 14.748 20.3097 15.3008 19.4847 15.3455L17.9337 15.372Z" fill="#1D1D1B"/>
<path fill-rule="evenodd" clip-rule="evenodd" d="M16.2786 32.4767C16.2705 32.5175 16.2555 32.556 16.2344 32.5916L14.8792 35.4882L14.782 35.6653C14.7599 35.7042 14.7334 35.7398 14.7021 35.7716L14.6223 35.8245H14.5338H13.8785C13.8227 35.8322 13.7669 35.8125 13.7279 35.7716C13.7063 35.696 13.7063 35.6162 13.7279 35.5411L13.7809 33.1761V33.1059V33.1588L12.7889 35.6032C12.7648 35.6681 12.7254 35.7259 12.6739 35.7716C12.6287 35.8072 12.5719 35.8259 12.5142 35.8245H11.8147C11.7141 35.8245 11.6583 35.7567 11.6463 35.621L11.3365 32.583C11.3312 32.545 11.3312 32.5065 11.3365 32.4675H11.4163H12.0624H12.1336C12.1385 32.4882 12.1385 32.5094 12.1336 32.5296L12.2222 35.0981V35.1601L12.2751 35.0981L13.2671 32.6628C13.2921 32.596 13.3315 32.5353 13.3825 32.4858C13.4302 32.4478 13.4903 32.4285 13.5509 32.4324H14.1975C14.2533 32.4237 14.3096 32.4439 14.3481 32.4858C14.3668 32.5522 14.3668 32.6229 14.3481 32.6893L14.2947 35.0721C14.2908 35.0923 14.2908 35.113 14.2947 35.1337L14.3567 35.0721L15.4906 32.4945C15.4868 32.4738 15.4868 32.4526 15.4906 32.4324H15.5613H16.066C16.2079 32.4266 16.2786 32.4415 16.2786 32.4767Z" fill="#6D6F71"/>
<path fill-rule="evenodd" clip-rule="evenodd" d="M17.8817 34.5136C17.9091 34.3914 17.9236 34.2668 17.926 34.1418C17.9375 34.0201 17.8995 33.8983 17.8197 33.805C17.7331 33.7338 17.6214 33.6992 17.5098 33.7078C17.3405 33.7045 17.1789 33.7757 17.0668 33.9022C16.922 34.0946 16.8277 34.3202 16.7921 34.5579C16.7656 34.6806 16.7507 34.8047 16.7483 34.9298C16.7059 35.1261 16.831 35.3195 17.0273 35.3613C17.0721 35.3709 17.1187 35.3719 17.1644 35.3642C17.3318 35.368 17.493 35.3007 17.607 35.178C17.7576 34.9793 17.8519 34.7441 17.8817 34.4958V34.5136ZM18.6789 34.5136C18.6413 34.7027 18.5754 34.8846 18.484 35.0539C18.3979 35.2146 18.2839 35.3584 18.1473 35.4792C18.0068 35.5999 17.8442 35.6928 17.6691 35.7539C17.4699 35.8231 17.2602 35.8559 17.0494 35.851C16.7517 35.8737 16.4572 35.7818 16.2253 35.5942C16.0348 35.4133 15.9338 35.1568 15.9507 34.8947C15.9478 34.8355 15.9478 34.7763 15.9507 34.7176V34.5228C15.9891 34.3371 16.055 34.1576 16.146 33.9912C16.2316 33.8305 16.3456 33.6862 16.4822 33.5659C16.6232 33.4432 16.7853 33.3475 16.9604 33.2826C17.1591 33.2104 17.3694 33.1748 17.5806 33.1762C17.8779 33.1531 18.1728 33.2446 18.4042 33.4331C18.5952 33.614 18.6957 33.8704 18.6789 34.1331V34.3101C18.6846 34.378 18.6846 34.4458 18.6789 34.5136Z" fill="#6D6F71"/>
<path fill-rule="evenodd" clip-rule="evenodd" d="M20.9728 33.7784C20.9684 33.8227 20.929 33.854 20.8852 33.8491H20.8842H20.7693H20.6716H20.5124C20.2593 33.8111 20.0212 33.9795 19.9721 34.2302L19.644 35.683C19.644 35.7451 19.644 35.7715 19.5555 35.7715H18.9532C18.9532 35.7715 18.8911 35.7715 18.8911 35.7003L19.4049 33.3002C19.4097 33.2497 19.4521 33.2112 19.5026 33.2117H20.0784H20.1405H20.1847C20.2223 33.2204 20.2617 33.2204 20.2997 33.2117L20.4416 33.1496L20.6187 33.0876C20.7009 33.076 20.7842 33.076 20.8664 33.0876C20.9246 33.0717 20.9857 33.0717 21.0435 33.0876C21.0709 33.1054 21.0872 33.1352 21.0877 33.1674L20.9728 33.7784Z" fill="#6D6F71"/>
<path fill-rule="evenodd" clip-rule="evenodd" d="M21.6815 35.6831C21.6767 35.7331 21.6343 35.7721 21.5838 35.7716H20.9906C20.9435 35.7716 20.9199 35.748 20.9199 35.7004L21.6459 32.2996C21.6377 32.2765 21.6377 32.2515 21.6459 32.2284H21.7171H22.3016C22.3353 32.2236 22.367 32.2462 22.3723 32.2804C22.3733 32.2866 22.3733 32.2929 22.3723 32.2996L21.6815 35.6831Z" fill="#6D6F71"/>
<path fill-rule="evenodd" clip-rule="evenodd" d="M24.4005 33.9114C24.3981 33.8517 24.3644 33.7983 24.312 33.7699C24.2273 33.7271 24.1321 33.7083 24.0373 33.7165C23.8502 33.7141 23.6693 33.7839 23.5326 33.9114C23.37 34.0817 23.2652 34.2986 23.2315 34.5315V34.6821C23.2281 34.7292 23.2281 34.7768 23.2315 34.8235C23.2233 34.9519 23.2647 35.0789 23.3465 35.178C23.4489 35.2743 23.5875 35.3228 23.7275 35.3108C23.8309 35.3127 23.9339 35.2916 24.0286 35.2488C24.121 35.205 24.1874 35.1194 24.2057 35.0188L24.4005 33.9114ZM24.9677 35.6918H24.0816H24.0373H23.931L23.7895 35.7361L23.5947 35.7804H23.3378C23.0819 35.7986 22.8293 35.712 22.6378 35.5413C22.4695 35.3628 22.3833 35.1222 22.3987 34.8769C22.4002 34.7456 22.4151 34.6152 22.443 34.4872C22.4844 34.2823 22.556 34.0855 22.6556 33.9022C22.7422 33.742 22.8562 33.5987 22.9924 33.4774C23.1228 33.3624 23.2729 33.273 23.435 33.2119C23.5995 33.1517 23.7737 33.1219 23.9488 33.1229H24.1792L24.3385 33.1676L24.4448 33.2119H24.4982C24.4982 33.2119 24.5511 33.2119 24.5602 33.1498L24.7551 32.2107C24.7594 32.1573 24.8065 32.1174 24.8604 32.1222H24.8614H25.4546C25.5017 32.1222 25.5253 32.1429 25.5253 32.1843L24.9677 35.6918Z" fill="#6D6F71"/>
<path fill-rule="evenodd" clip-rule="evenodd" d="M29.7506 33.2739V33.3268L28.6609 35.444L28.5546 35.6297C28.5296 35.6692 28.5002 35.7048 28.4661 35.7361L28.3867 35.7895H27.7844C27.7262 35.7976 27.6685 35.7736 27.6338 35.7274C27.6122 35.637 27.6122 35.5431 27.6338 35.4527V34.0003V33.9291L27.5804 33.9912L26.9516 35.4883C26.9146 35.5951 26.8574 35.6947 26.7833 35.7803C26.7409 35.8231 26.6842 35.8486 26.624 35.851H25.9861C25.9688 35.8568 25.9505 35.8568 25.9327 35.851C25.9274 35.8188 25.9274 35.7861 25.9327 35.7539V35.5682L25.7648 33.4067C25.7581 33.3836 25.7581 33.359 25.7648 33.3359C25.7903 33.3244 25.8192 33.3244 25.8442 33.3359H26.4292C26.4821 33.3359 26.5086 33.3359 26.5086 33.398L26.562 35.1689V35.2309L26.6149 35.1689L27.3057 33.5308C27.3312 33.462 27.374 33.4009 27.4298 33.3533C27.4755 33.3191 27.5318 33.3003 27.5891 33.3003H28.1471C28.2034 33.2917 28.2597 33.3114 28.2977 33.3533C28.317 33.4235 28.317 33.4966 28.2977 33.5659V35.1871V35.2401L28.3511 35.178L29.1747 33.4067C29.1954 33.3672 29.2368 33.3432 29.281 33.3446H29.715C29.7236 33.2296 29.7506 33.2469 29.7506 33.2739Z" fill="#6D6F71"/>
<path fill-rule="evenodd" clip-rule="evenodd" d="M31.0523 32.4414C31.0581 32.5612 31.0052 32.6767 30.9109 32.7512C30.807 32.8311 30.6785 32.872 30.5477 32.8667C30.2994 32.8667 30.1753 32.7806 30.1753 32.6098C30.1667 32.489 30.2201 32.3717 30.3172 32.2995C30.426 32.2244 30.5568 32.1869 30.6891 32.1932C30.9316 32.2168 31.0523 32.311 31.0523 32.4765V32.4414ZM30.3259 35.6829C30.3216 35.7335 30.2792 35.7719 30.2287 35.7715H29.6442C29.5971 35.7715 29.573 35.7479 29.573 35.7003L30.0868 33.3001C30.0825 33.2799 30.0825 33.2588 30.0868 33.2381C30.1123 33.227 30.1412 33.227 30.1667 33.2381H30.7512C30.7954 33.2381 30.8219 33.2381 30.8219 33.3001L30.3259 35.6829Z" fill="#6D6F71"/>
<path fill-rule="evenodd" clip-rule="evenodd" d="M33.0451 33.9114C33.0427 33.8517 33.0091 33.7983 32.9566 33.7699C32.8719 33.7271 32.7767 33.7083 32.6819 33.7165C32.4948 33.7141 32.3139 33.7839 32.1773 33.9114C32.0147 34.0817 31.9098 34.2986 31.8761 34.5315V34.6821C31.8727 34.7292 31.8727 34.7768 31.8761 34.8235C31.8679 34.9519 31.9088 35.0789 31.9911 35.178C32.0936 35.2743 32.2321 35.3228 32.3721 35.3108C32.4755 35.3127 32.5785 35.2916 32.6733 35.2488C32.7656 35.205 32.8315 35.1194 32.8503 35.0188L33.0451 33.9114ZM33.6119 35.6918H32.7262H32.6819H32.5756L32.4337 35.7361L32.2393 35.7804H31.9824C31.7265 35.7986 31.4739 35.712 31.2825 35.5413C31.1141 35.3628 31.0275 35.1222 31.0434 34.8769C31.0448 34.7456 31.0597 34.6152 31.0876 34.4872C31.1285 34.2823 31.2002 34.0855 31.3003 33.9022C31.3869 33.742 31.5009 33.5987 31.637 33.4774C31.7674 33.3624 31.917 33.273 32.0796 33.2119C32.2441 33.1517 32.4183 33.1219 32.5934 33.1229H32.8238L32.9831 33.1676L33.0894 33.2119H33.1428C33.1428 33.2119 33.1957 33.2119 33.2049 33.1498L33.3992 32.2107C33.404 32.1573 33.4512 32.1174 33.5051 32.1222H33.506H34.0992C34.1463 32.1222 34.1699 32.1429 34.1699 32.1843L33.6119 35.6918Z" fill="#6D6F71"/>
<path fill-rule="evenodd" clip-rule="evenodd" d="M35.9504 34.2036L36.0033 34.1243C36.0062 34.0829 36.0062 34.0415 36.0033 34.0001C36.0081 33.9049 35.9725 33.812 35.9061 33.7432C35.8219 33.673 35.7142 33.6384 35.605 33.6461C35.5155 33.6451 35.4274 33.6667 35.3481 33.7081C35.2783 33.7442 35.2153 33.7923 35.1619 33.8496C35.1162 33.8981 35.0801 33.9554 35.0556 34.0175C35.0474 34.0675 35.0474 34.1185 35.0556 34.1685H35.1085L35.9504 34.2036ZM36.6677 34.5755C36.659 34.6275 36.6138 34.665 36.5613 34.6645H35.0113C34.9916 34.6544 34.969 34.6544 34.9492 34.6645V34.7266C34.9464 34.7501 34.9464 34.7737 34.9492 34.7968V34.868C34.943 34.9955 34.9993 35.1177 35.0998 35.1961C35.2427 35.2856 35.4106 35.326 35.5785 35.3111C35.6843 35.3221 35.7911 35.3221 35.897 35.3111L36.1274 35.249L36.278 35.187H36.3578C36.3578 35.187 36.4199 35.187 36.4199 35.249L36.34 35.5944C36.3309 35.6469 36.2982 35.6926 36.251 35.7181C36.1856 35.7585 36.1139 35.7883 36.0389 35.8071L35.7377 35.86H35.3745C35.0609 35.8807 34.7491 35.797 34.4888 35.6209C34.294 35.4453 34.1867 35.1923 34.1964 34.9301V34.753C34.1911 34.6881 34.1911 34.6227 34.1964 34.5577C34.218 34.335 34.2752 34.1166 34.3647 33.9116C34.4581 33.7481 34.5812 33.6037 34.7279 33.4863C34.8651 33.3781 35.0209 33.2968 35.1888 33.2472C35.3582 33.1977 35.5342 33.1736 35.7108 33.176C35.87 33.1732 36.0283 33.1938 36.1808 33.2381C36.2958 33.2732 36.4016 33.3334 36.4906 33.4151C36.5686 33.4916 36.6263 33.5859 36.659 33.6903C36.6946 33.7986 36.7124 33.9126 36.7119 34.0266C36.7167 34.1036 36.7167 34.1801 36.7119 34.2566C36.7211 34.3634 36.6941 34.4605 36.6677 34.5755Z" fill="#6D6F71"/>
<path fill-rule="evenodd" clip-rule="evenodd" d="M40.9456 34.1063C40.9788 33.9577 40.9961 33.8066 40.999 33.6546C41.0149 33.4622 40.9543 33.2717 40.8306 33.123C40.6974 32.9974 40.5175 32.9335 40.3347 32.946C40.0778 32.9421 39.831 33.0451 39.6525 33.2298C39.4321 33.478 39.2907 33.7864 39.245 34.1155C39.2118 34.2665 39.1945 34.4205 39.1921 34.5759C39.1777 34.7635 39.2349 34.9502 39.3513 35.0983C39.4803 35.2258 39.6583 35.2903 39.8387 35.2758C40.1037 35.2879 40.3606 35.1806 40.5381 34.9829C40.7513 34.737 40.8922 34.4368 40.9456 34.1155V34.1063ZM41.7875 34.1063C41.7375 34.3502 41.6543 34.5855 41.5393 34.8058C41.431 35.0127 41.2867 35.1989 41.114 35.3552C40.9374 35.5125 40.733 35.6357 40.5117 35.7184C40.2625 35.8098 39.9979 35.8551 39.7323 35.8512C39.36 35.8806 38.9915 35.7627 38.7047 35.5231C38.4753 35.2869 38.3536 34.9665 38.3685 34.6374C38.3632 34.5581 38.3632 34.4782 38.3685 34.3984V34.1415C38.418 33.898 38.5012 33.6623 38.6162 33.442C38.838 33.0302 39.2036 32.7146 39.6438 32.5563C39.893 32.4644 40.1571 32.4192 40.4232 32.4235C40.7979 32.3922 41.1703 32.5106 41.4594 32.7511C41.6932 32.9854 41.8183 33.3063 41.8048 33.6368V33.8759C41.8029 33.9534 41.7971 34.0298 41.7875 34.1063Z" fill="#6D6F71"/>
<path fill-rule="evenodd" clip-rule="evenodd" d="M42.6906 35.6831C42.6863 35.7331 42.644 35.7721 42.5935 35.7716H42.0089C41.9555 35.7716 41.9377 35.7716 41.9377 35.7004L42.6642 32.2996C42.656 32.2765 42.656 32.2515 42.6642 32.2284H42.7349H43.3199C43.3536 32.2236 43.3853 32.2462 43.3906 32.2804C43.3916 32.2866 43.3916 32.2929 43.3906 32.2996L42.6906 35.6831Z" fill="#6D6F71"/>
<path fill-rule="evenodd" clip-rule="evenodd" d="M46.0472 33.2739C46.0409 33.3148 46.026 33.3542 46.0029 33.3889L44.4264 36.2234C44.3244 36.4288 44.1758 36.6078 43.9925 36.7459C43.8323 36.8503 43.6432 36.9022 43.4522 36.8964H43.2131C43.1482 36.8964 43.1155 36.8724 43.1155 36.8257L43.1867 36.489C43.178 36.4692 43.178 36.4471 43.1867 36.4269H43.3993C43.4628 36.4428 43.5302 36.4428 43.5937 36.4269C43.6476 36.3966 43.6928 36.3538 43.7269 36.3028L43.7799 36.2321C43.8025 36.2061 43.8207 36.1758 43.8333 36.1436C43.8357 36.1229 43.8357 36.1022 43.8333 36.0815V36.0372V35.9843L43.4614 33.4331C43.4513 33.4072 43.4513 33.3793 43.4614 33.3533C43.4869 33.3432 43.5153 33.3432 43.5408 33.3533H44.1431C44.196 33.3533 44.2229 33.3533 44.2229 33.4153L44.3913 35.1073V35.1689L44.4534 35.1073L45.2948 33.4153C45.3179 33.3745 45.3626 33.3504 45.4098 33.3533H45.8879C45.8879 33.3533 46.0472 33.247 46.0472 33.2739Z" fill="#6D6F71"/>
<path fill-rule="evenodd" clip-rule="evenodd" d="M49.7231 35.6831C49.7183 35.7365 49.6716 35.7759 49.6177 35.7716H49.6168H49.0322C48.9793 35.7716 48.9615 35.7716 48.9615 35.7095L49.2805 34.2215C49.2872 34.1566 49.2872 34.0912 49.2805 34.0267C49.2863 33.9449 49.2569 33.8646 49.2006 33.8054C49.127 33.7496 49.0351 33.7246 48.9437 33.7342H48.8023H48.6695C48.6291 33.7539 48.593 33.7814 48.5632 33.8141C48.5286 33.8516 48.504 33.8973 48.492 33.9473L48.1644 35.6831C48.1596 35.7365 48.1124 35.7759 48.059 35.7716H48.0581H47.4735C47.4206 35.7716 47.4028 35.7716 47.4028 35.7095L47.7218 34.2302C47.728 34.1629 47.728 34.0945 47.7218 34.0267C47.7285 33.9449 47.6992 33.8641 47.6419 33.8054C47.5702 33.7525 47.4822 33.728 47.3937 33.7342H47.2518H47.1195C47.0791 33.7539 47.043 33.7814 47.0127 33.8141C46.9785 33.8516 46.954 33.8973 46.9424 33.9473L46.6057 35.6831C46.6009 35.7331 46.5585 35.7721 46.508 35.7716H45.9322C45.8792 35.7716 45.8528 35.7509 45.8528 35.7095L46.3661 33.3089C46.3704 33.2555 46.4171 33.2151 46.4705 33.2195C46.4743 33.2195 46.4782 33.2199 46.4816 33.2209H47.0396H47.0925H47.1368H47.2609L47.4028 33.1675L47.5885 33.1141H47.8459C47.9426 33.0997 48.0412 33.0997 48.1379 33.1141L48.3063 33.194L48.4035 33.2738C48.4266 33.282 48.4511 33.282 48.4742 33.2738C48.5151 33.283 48.5574 33.283 48.5983 33.2738L48.7753 33.194L49.0322 33.1141C49.1501 33.1016 49.2689 33.1016 49.3868 33.1141C49.5629 33.1078 49.7365 33.1574 49.8828 33.256C50.017 33.358 50.0911 33.5216 50.0772 33.6899C50.0824 33.764 50.0824 33.8376 50.0772 33.9112C50.0772 33.9911 50.0772 34.0888 50.0242 34.1951L49.7231 35.6831Z" fill="#6D6F71"/>
<path fill-rule="evenodd" clip-rule="evenodd" d="M52.4072 34.4873C52.4173 34.3901 52.4173 34.292 52.4072 34.1953C52.4173 34.0664 52.3759 33.9384 52.2922 33.8403C52.1869 33.7493 52.0498 33.7046 51.9112 33.7161C51.8107 33.7161 51.7111 33.7373 51.6187 33.7782C51.5278 33.8152 51.4614 33.8951 51.4417 33.9913L51.1939 35.0805C51.1819 35.1122 51.1819 35.1464 51.1939 35.1781L51.282 35.2489H51.3974H51.5211C51.6067 35.2619 51.6933 35.2619 51.778 35.2489C51.8636 35.2219 51.9425 35.1767 52.0084 35.1161C52.0839 35.0439 52.1465 34.9602 52.1946 34.8678C52.2797 34.7543 52.3485 34.6292 52.3981 34.496L52.4072 34.4873ZM53.2044 34.4873C53.1404 34.8784 52.947 35.2373 52.6554 35.5058C52.3899 35.7352 52.0493 35.8584 51.6986 35.8512H51.4681L51.3089 35.8069L51.2026 35.7622H51.1405C51.1405 35.7622 51.0963 35.7622 51.0876 35.8242L50.8745 36.8167C50.875 36.8653 50.8355 36.9052 50.7869 36.9052C50.7836 36.9052 50.7802 36.9052 50.7773 36.9047H50.1841C50.1841 36.9047 50.1221 36.9047 50.1221 36.8427L50.8572 33.389C50.8615 33.3351 50.9091 33.2952 50.9625 33.3H50.9635H51.5302H51.5923H51.6986L51.84 33.2471L52.0353 33.1942H52.2831C52.539 33.1744 52.7921 33.261 52.9826 33.4333C53.1538 33.6142 53.24 33.8581 53.2217 34.1063C53.2289 34.2338 53.2231 34.3608 53.2044 34.4873Z" fill="#6D6F71"/>
<path fill-rule="evenodd" clip-rule="evenodd" d="M54.9134 32.4414C54.9192 32.5612 54.8663 32.6767 54.7715 32.7512C54.6681 32.8311 54.5396 32.872 54.4083 32.8667C54.161 32.8667 54.0398 32.7806 54.0455 32.6098C54.0383 32.489 54.0912 32.3726 54.187 32.2995C54.2962 32.2244 54.4266 32.1869 54.5593 32.1932C54.7893 32.2168 54.9043 32.311 54.9043 32.4765L54.9134 32.4414ZM54.187 35.6829C54.1875 35.732 54.148 35.7719 54.0994 35.7719C54.0961 35.7719 54.0927 35.7719 54.0898 35.7715H53.5053C53.4519 35.7715 53.4346 35.7715 53.4346 35.7003L53.9479 33.3001C53.9436 33.2799 53.9436 33.2588 53.9479 33.2381C53.9734 33.227 54.0022 33.227 54.0277 33.2381H54.6123C54.6565 33.2381 54.683 33.2381 54.683 33.3001L54.187 35.6829Z" fill="#6D6F71"/>
<path fill-rule="evenodd" clip-rule="evenodd" d="M56.9064 35.5853C56.8919 35.6411 56.853 35.6868 56.8001 35.7094C56.7269 35.7455 56.6495 35.7724 56.5701 35.7893L56.2771 35.8335H55.9851C55.6912 35.8528 55.3996 35.7681 55.1615 35.5944C54.97 35.4169 54.8661 35.1643 54.8781 34.9036C54.8791 34.7751 54.8935 34.6477 54.9224 34.5226C54.9926 34.1367 55.1923 33.787 55.4896 33.5306C55.8085 33.278 56.2078 33.1496 56.6144 33.1679H56.8972L57.1368 33.2116L57.3047 33.2737C57.3047 33.2737 57.3668 33.3271 57.3668 33.3531L57.2782 33.761C57.2835 33.7812 57.2835 33.8024 57.2782 33.8231H57.2253C57.1989 33.8313 57.1714 33.8313 57.1455 33.8231L57.0483 33.7702L56.8886 33.7163C56.8034 33.7057 56.7168 33.7057 56.6322 33.7163C56.1655 33.7163 55.8701 33.9886 55.746 34.5317C55.7378 34.6135 55.7378 34.6967 55.746 34.7795C55.733 34.9238 55.785 35.0672 55.8879 35.1692C56.001 35.2572 56.1429 35.3014 56.2863 35.2933C56.3806 35.3039 56.4753 35.3039 56.5701 35.2933L56.7645 35.2312L56.8972 35.1692H56.9862C56.9862 35.1692 57.0483 35.1692 57.0483 35.2221L56.9064 35.5853Z" fill="#6D6F71"/>
<path fill-rule="evenodd" clip-rule="evenodd" d="M60.8475 33.4509V33.3446C60.8504 33.3124 60.8504 33.2797 60.8475 33.247C60.8577 33.1464 60.8177 33.0473 60.7412 32.9814C60.6402 32.9203 60.5223 32.8929 60.405 32.9015H60.1481C60.1125 32.9011 60.0817 32.928 60.0769 32.9636L59.8647 33.9643H59.9176H60.1567C60.3092 33.9676 60.4584 33.9214 60.582 33.832C60.7128 33.7381 60.8091 33.6044 60.8567 33.4509H60.8475ZM61.7337 33.1849C61.7323 33.3052 61.7145 33.424 61.6803 33.5395C61.6481 33.6573 61.6 33.7704 61.5389 33.8762C61.4778 33.9801 61.4032 34.0754 61.3176 34.1596C61.231 34.2428 61.1324 34.3111 61.0251 34.3631C60.9106 34.4198 60.7879 34.4588 60.6619 34.4785C60.4968 34.4925 60.3309 34.4925 60.1659 34.4785H59.8291C59.7906 34.4732 59.755 34.5007 59.7497 34.5391V34.5406L59.5193 35.6832C59.5193 35.7317 59.4798 35.7717 59.4312 35.7717C59.4279 35.7717 59.425 35.7717 59.4216 35.7712H58.7751C58.7414 35.777 58.7096 35.7534 58.7043 35.7197C58.7034 35.7135 58.7034 35.7067 58.7043 35.7005L59.3865 32.4945C59.3913 32.4407 59.438 32.4007 59.4919 32.4055H59.4928H60.786C61.0395 32.3849 61.2935 32.4436 61.5119 32.5739C61.6842 32.7269 61.7679 32.9573 61.7337 33.1849Z" fill="#6D6F71"/>
<path fill-rule="evenodd" clip-rule="evenodd" d="M63.2394 34.5493H63.1331L62.8935 34.6378C62.7699 34.6715 62.6554 34.7321 62.5573 34.8149C62.4769 34.8976 62.4351 35.0097 62.4423 35.1247C62.4365 35.1892 62.463 35.2522 62.513 35.2931C62.5828 35.3344 62.6631 35.3527 62.7434 35.346C62.8473 35.3484 62.9498 35.3272 63.0446 35.2839C63.1307 35.244 63.1932 35.1651 63.2125 35.0718L63.2394 34.5493ZM63.0797 35.8069C63.0797 35.8069 63.0176 35.8069 63.0176 35.7539H62.9113L62.7612 35.7982L62.5664 35.8425H62.309C62.1926 35.8454 62.0762 35.8309 61.9641 35.7982C61.8818 35.7737 61.8063 35.7313 61.7428 35.6741C61.6894 35.6255 61.6495 35.5649 61.6273 35.4971C61.6167 35.4292 61.6167 35.3609 61.6273 35.2931C61.6201 35.2224 61.6201 35.1512 61.6273 35.0804C61.6456 34.9722 61.6812 34.8673 61.7336 34.7706C61.7851 34.6831 61.8505 34.6051 61.9285 34.5402C62.0141 34.468 62.1094 34.4084 62.2118 34.3631C62.3412 34.3064 62.4745 34.2587 62.6102 34.2212L63.2216 34.0442L63.3722 33.9913C63.3967 33.9754 63.4131 33.9494 63.4165 33.9201V33.832C63.4165 33.7873 63.4165 33.743 63.3279 33.7166C63.2226 33.6814 63.111 33.6665 63.0003 33.6723C62.8825 33.6598 62.7636 33.6598 62.6463 33.6723L62.3889 33.743L62.221 33.8142H62.1233C62.1233 33.8142 62.0613 33.8142 62.0613 33.7608L62.132 33.4068C62.1493 33.35 62.1921 33.3043 62.247 33.2826C62.3292 33.2432 62.4153 33.2138 62.5043 33.1941L62.8406 33.1407H63.2038C63.3554 33.1373 63.5074 33.1527 63.6556 33.185C63.7595 33.2085 63.8586 33.2504 63.9481 33.3091C64.0149 33.3558 64.0674 33.4197 64.0982 33.4953C64.1285 33.5684 64.1434 33.6463 64.1429 33.7252C64.1405 33.8388 64.1256 33.9518 64.0982 34.062L63.7354 35.6827C63.7306 35.7366 63.6835 35.7761 63.6301 35.7713H63.6291L63.0797 35.8069Z" fill="#6D6F71"/>
<path fill-rule="evenodd" clip-rule="evenodd" d="M66.4281 33.7784C66.4233 33.8227 66.3843 33.8539 66.34 33.8491H66.3391H66.251H66.1534H65.9941C65.7411 33.8111 65.503 33.9795 65.4539 34.2302L65.0993 35.683C65.0993 35.7451 65.0993 35.7715 65.0108 35.7715H64.4085C64.4085 35.7715 64.3464 35.7715 64.3464 35.7003L64.8602 33.3002C64.865 33.2497 64.9074 33.2112 64.9574 33.2117H65.5337H65.5958H65.6396C65.6776 33.2204 65.7166 33.2204 65.755 33.2117L65.897 33.1496L66.074 33.0876C66.1563 33.076 66.239 33.076 66.3218 33.0876C66.3795 33.0712 66.4406 33.0712 66.4988 33.0876C66.5257 33.1054 66.5421 33.1352 66.5431 33.1674L66.4281 33.7784Z" fill="#6D6F71"/>
<path fill-rule="evenodd" clip-rule="evenodd" d="M68.137 35.683C68.1264 35.7235 68.0966 35.7562 68.0576 35.7716L67.8888 35.8245H67.6858H67.2692C67.1811 35.8168 67.0945 35.7961 67.0123 35.7624C66.929 35.7283 66.8559 35.6734 66.8001 35.6032C66.7361 35.5161 66.7044 35.4098 66.7111 35.302C66.7077 35.252 66.7077 35.2015 66.7111 35.1519V34.9744L66.968 33.7784H66.9242H66.7111C66.6582 33.7784 66.6404 33.7784 66.6404 33.7164L66.7111 33.3801C66.7202 33.3282 66.765 33.2906 66.8174 33.2916H67.0301C67.0301 33.2916 67.0835 33.2916 67.0921 33.2295L67.1984 32.7427C67.2032 32.6869 67.2489 32.645 67.3048 32.645H67.8806C67.9335 32.645 67.96 32.645 67.96 32.7066L67.8537 33.2117H67.8979H68.518C68.571 33.2117 68.5979 33.2324 68.5979 33.2738L68.5272 33.6101C68.5224 33.6688 68.4709 33.7125 68.4122 33.7082H68.4117H67.7916C67.756 33.7077 67.7257 33.7342 67.7209 33.7698L67.5525 34.7969C67.5496 34.8508 67.5496 34.9037 67.5525 34.9566C67.5506 34.9893 67.5506 35.0216 67.5525 35.0538C67.5491 35.0807 67.5491 35.1077 67.5525 35.1337C67.5477 35.1572 67.5477 35.1813 67.5525 35.2049C67.5742 35.2289 67.6021 35.2472 67.6324 35.2578H67.7656H67.9249H68.0307H68.1019H68.1548C68.1548 35.2578 68.2169 35.2578 68.2169 35.3112L68.137 35.683Z" fill="#6D6F71"/>
<path fill-rule="evenodd" clip-rule="evenodd" d="M70.9982 35.683C70.9933 35.7364 70.9462 35.7759 70.8923 35.7716H70.8918H70.3068C70.2631 35.7716 70.2361 35.7716 70.2361 35.7095L70.5373 34.2922C70.5474 34.2071 70.5474 34.121 70.5373 34.0353C70.5373 33.8347 70.4194 33.7342 70.1832 33.7342H70.0326L69.8907 33.7784C69.8479 33.8015 69.8089 33.8314 69.7757 33.8674C69.7392 33.903 69.7142 33.9492 69.705 34.0002L69.3774 35.683C69.3774 35.7321 69.3379 35.772 69.2889 35.772C69.286 35.772 69.2831 35.772 69.2797 35.7716H68.6952C68.6423 35.7716 68.624 35.7716 68.624 35.7095L69.1383 33.3089C69.1465 33.2574 69.1917 33.2199 69.2441 33.2209H69.7935C69.7935 33.2209 69.8556 33.2209 69.8556 33.2651H69.8998H70.024L70.1832 33.2117L70.378 33.1588H70.6263C70.7235 33.1473 70.8211 33.1473 70.9183 33.1588C71.0034 33.1771 71.0843 33.2098 71.1574 33.256C71.2252 33.3007 71.2801 33.3613 71.3171 33.433C71.3561 33.5162 71.3744 33.6077 71.37 33.6991C71.3753 33.7727 71.3753 33.8468 71.37 33.9204C71.37 34.0002 71.37 34.0974 71.3171 34.2037L70.9982 35.683Z" fill="#6D6F71"/>
<path fill-rule="evenodd" clip-rule="evenodd" d="M73.5047 34.2036L73.5576 34.1243C73.561 34.0829 73.561 34.0415 73.5576 34.0001C73.5624 33.9049 73.5273 33.812 73.4604 33.7432C73.3743 33.6711 73.2627 33.636 73.1506 33.6461C73.0611 33.6451 72.9731 33.6668 72.8932 33.7081C72.824 33.7442 72.7609 33.7923 72.7075 33.8496C72.6618 33.8982 72.6258 33.9554 72.6012 34.0175C72.5926 34.0675 72.5926 34.1185 72.6012 34.1685H72.6541L73.5047 34.2036ZM74.222 34.5755C74.2138 34.6275 74.1686 34.665 74.1161 34.6645H72.5661C72.5464 34.6544 72.5233 34.6544 72.5041 34.6645V34.7266C72.5007 34.7501 72.5007 34.7737 72.5041 34.7968V34.868C72.4973 34.9955 72.5536 35.1177 72.6541 35.1961C72.797 35.2846 72.9649 35.325 73.1328 35.3111C73.2387 35.3222 73.3455 35.3222 73.4518 35.3111L73.6817 35.249L73.8328 35.187H73.9122C73.9122 35.187 73.9742 35.187 73.9742 35.249L73.8949 35.5944C73.8852 35.6469 73.853 35.6926 73.8059 35.7181C73.7399 35.758 73.6683 35.7883 73.5937 35.8071L73.2925 35.86H72.9293C72.6152 35.8812 72.3034 35.7975 72.0432 35.6209C71.8483 35.4453 71.7415 35.1923 71.7507 34.9301V34.753C71.7459 34.6881 71.7459 34.6227 71.7507 34.5577C71.7945 34.3407 71.8724 34.1315 71.9811 33.9381C72.0744 33.7745 72.1976 33.6307 72.3443 33.5128C72.4814 33.4046 72.6378 33.3237 72.8052 33.2737C72.9745 33.2242 73.1511 33.2001 73.3277 33.203C73.4864 33.1996 73.6447 33.2203 73.7967 33.265C73.9127 33.2997 74.018 33.3603 74.107 33.4421C74.1849 33.5181 74.2427 33.6124 74.2754 33.7163C74.311 33.8255 74.3288 33.939 74.3283 34.0535C74.3336 34.13 74.3336 34.207 74.3283 34.2835C74.2576 34.3662 74.222 34.4634 74.222 34.5755Z" fill="#6D6F71"/>
<path fill-rule="evenodd" clip-rule="evenodd" d="M76.5428 33.7784C76.538 33.8227 76.4986 33.8539 76.4548 33.8491H76.4538H76.3388H76.2417H76.0819C75.8294 33.8111 75.5908 33.9795 75.5417 34.2302L75.2141 35.683C75.2141 35.7451 75.2141 35.7715 75.1256 35.7715H74.5232C74.5232 35.7715 74.4612 35.7715 74.4612 35.7003L74.975 33.3002C74.9793 33.2497 75.0221 33.2112 75.0722 33.2117H75.6485H75.7105H75.7543C75.7919 33.2204 75.8313 33.2204 75.8698 33.2117L76.0117 33.1496L76.1887 33.0876C76.271 33.076 76.3538 33.076 76.436 33.0876C76.4942 33.0712 76.5553 33.0712 76.6131 33.0876C76.6405 33.1054 76.6568 33.1352 76.6578 33.1674L76.5428 33.7784Z" fill="#6D6F71"/>
</svg>
