<svg xmlns="http://www.w3.org/2000/svg" viewBox="0 0 640 480">
  <defs>
    <clipPath id="flag-icon-gr-a">
      <path fill-opacity=".7" d="M0 0h120v90H0z"></path>
    </clipPath>
  </defs>
  <g fill-rule="evenodd" stroke-width="1pt" clip-path="url(#flag-icon-gr-a)" transform="scale(5.33)">
    <path fill="#0d5eaf" d="M0 0h135v10H0z"></path>
    <path fill="#fff" d="M0 10h135v10H0z"></path>
    <path fill="#0d5eaf" d="M0 20h135v10H0z"></path>
    <path fill="#fff" d="M0 30h135v10H0z"></path>
    <path fill="#0d5eaf" d="M0 40h135v10H0z"></path>
    <path fill="#fff" d="M0 50h135v10H0z"></path>
    <path fill="#0d5eaf" d="M0 60h135v10H0z"></path>
    <path fill="#fff" d="M0 70h135v10H0z"></path>
    <path fill="#0d5eaf" d="M0 80h135v10H0zM0 0h50v50H0z"></path>
    <g fill="#fff">
      <path d="M20 0h10v50H20z"></path>
      <path d="M0 20h50v10H0z"></path>
    </g>
  </g>
</svg>